<?xml version="1.0" encoding="utf-8"?>
<!-- Generator: Adobe Illustrator 26.0.0, SVG Export Plug-In . SVG Version: 6.00 Build 0)  -->
<svg version="1.1" id="Layer_1" xmlns="http://www.w3.org/2000/svg" xmlns:xlink="http://www.w3.org/1999/xlink" x="0px" y="0px"
	 viewBox="0 0 3971.04 1658.4" style="enable-background:new 0 0 3971.04 1658.4;" xml:space="preserve">
<style type="text/css">
	.st0{fill:#1F1A4E;}
	.st1{fill:#201B4E;}
	.st2{fill:#201B4F;}
	.st3{fill:#2F2B5B;}
	.st4{fill:#41B750;}
	.st5{fill:#231E51;}
	.st6{fill:#3DB64C;}
	.st7{fill:#262153;}
	.st8{fill:#241F52;}
	.st9{fill:#272254;}
	.st10{fill:#292556;}
</style>
<g>
	<path class="st0" d="M401.57,789.95c2.68,2.64,5.97,3.16,8.89,4.38c12.14,5.1,23.67,11.26,34.05,19.42
		c22.22,17.47,34.76,40.33,38.58,68.3c2.85,20.87,2.44,41.52-3.13,61.85c-10.31,37.66-31.91,67.29-64.58,88.65
		c-22.5,14.71-47.36,23.66-73.59,28.98c-20.14,4.08-40.55,5.42-61.05,5.44c-67.18,0.07-134.35,0-201.53,0.06
		c-11.81,0.01-10.97-0.64-10.97-11.22c0-170.53,0-341.07-0.01-511.6c0-10.53-0.61-10.73,10.28-10.71
		c64.3,0.09,128.59,0.07,192.89,0.04c26.62-0.01,53.02,2.09,79.07,7.77c21.37,4.66,41.75,11.9,60.68,23.01
		c32.64,19.16,51.88,47.52,58.53,84.65c3.36,18.74,4.04,37.46,0.41,56.25c-4.73,24.49-16.89,44.62-35.38,61.1
		c-7.91,7.05-16.6,13-25.83,18.2C406.44,785.91,403.53,786.71,401.57,789.95z M202.82,905.07c0,15.35-0.01,30.71,0.01,46.06
		c0,2.55,0.1,5.11,0.31,7.65c0.15,1.83,1.45,2.85,3.18,2.99c2.23,0.18,4.47,0.13,6.71,0.13c23.03,0.01,46.05,0.01,69.08-0.01
		c3.52,0,7.05,0.01,10.55-0.27c11.57-0.94,22.73-3.44,32.95-9.24c12.01-6.82,19.82-16.73,23.22-30.26
		c3.09-12.31,3.69-24.63,1.32-37.07c-2.77-14.54-10.68-25.02-24.55-30.84c-12.27-5.15-25.06-7.56-38.3-7.61
		c-25.27-0.08-50.53-0.08-75.8-0.04c-8.42,0.01-8.63,0.21-8.67,8.59C202.77,871.8,202.82,888.44,202.82,905.07z M247.33,752.03
		c10.67,0.1,23.77-0.1,36.84-1.34c8.97-0.85,17.68-2.89,25.97-6.34c13.23-5.5,21.98-15.07,25.41-29.18
		c3.71-15.24,3.32-30.51-0.9-45.51c-3.29-11.69-10.87-20.15-22.17-24.93c-3.51-1.48-7.18-2.69-10.89-3.58
		c-9.98-2.42-20.14-3.49-30.4-3.5c-19.18-0.02-38.37-0.01-57.55-0.01c-1.6,0-3.2-0.03-4.79,0.06c-4.82,0.3-5.66,1.09-5.94,5.6
		c-0.1,1.59-0.09,3.2-0.09,4.8c-0.01,31.34-0.01,62.68,0,94.02c0,1.92,0.05,3.84,0.18,5.75c0.14,2.2,1.45,3.58,3.55,3.86
		c2.2,0.3,4.46,0.28,6.69,0.29C223.79,752.04,234.34,752.03,247.33,752.03z"/>
	<path class="st0" d="M2870.39,799.49c0-84.13-0.01-168.27,0.01-252.4c0-15.05-1.27-13.56,13.14-13.56
		c56.29,0.02,112.58-0.01,168.87,0.02c28.55,0.01,56.81,2.69,84.58,9.65c16.49,4.13,32.36,9.92,47.51,17.65
		c11.15,5.69,21.53,12.56,30.96,20.82c19.25,16.87,32.62,37.47,39.84,62.08c9.03,30.76,10.05,61.72,2.28,92.83
		c-10.07,40.36-33.17,71.48-67.88,94.09c-6.15,4-12.68,7.42-19,11.15c-1.68,0.99-1.77,2.52-0.35,3.84c0.7,0.65,1.43,1.27,2.2,1.83
		c11.36,8.18,19.96,18.76,27.2,30.62c36.48,59.75,73.04,119.45,109.55,179.19c1.46,2.4,4.38,4.9,3.1,7.65
		c-1.65,3.53-5.7,1.96-8.71,1.97c-36.46,0.09-72.92,0.05-109.38,0.06c-7.4,0-14.65-0.84-21.73-3.11
		c-11.41-3.66-20.35-10.52-26.99-20.43c-1.77-2.65-3.29-5.48-4.87-8.25c-26.95-47.18-53.9-94.36-80.85-141.55
		c-2.07-3.62-4.28-7.13-7.24-10.1c-4.66-4.69-10.13-8.04-16.81-8.28c-8.94-0.32-17.9-0.14-26.85-0.01c-2.78,0.04-3.8,1.28-3.95,4.33
		c-0.15,2.87-0.09,5.76-0.09,8.63c0,55.34,0,110.68-0.01,166.03c0,12.95,0.97,12.79-12.31,12.77c-37.1-0.06-74.2-0.07-111.3,0.01
		c-11.52,0.02-10.92-0.48-10.92-11.3C2870.39,970.31,2870.39,884.9,2870.39,799.49z M3004.91,707.34c0,13.73,0,27.47,0,41.2
		c0,7.67-0.07,15.33,0.04,23c0.07,4.98,0.85,5.9,5.33,5.94c16.6,0.15,33.22,0.71,49.8-0.39c14.51-0.97,28.28-4.63,40.78-12.44
		c11.81-7.38,20.16-17.54,24.89-30.61c5.57-15.4,6.29-31.29,3.3-47.22c-3.4-18.12-13.77-31.33-30.36-39.43
		c-9.23-4.51-18.95-7.53-29.26-8.42c-19.44-1.69-38.93-1.09-58.4-1.19c-0.64,0-1.28,0.01-1.91,0.08c-2.7,0.33-3.94,1.55-4.1,4.33
		c-0.15,2.55-0.1,5.11-0.1,7.66C3004.91,669.02,3004.91,688.18,3004.91,707.34z"/>
	<path class="st0" d="M2467.22,799.55c0-84.44,0-168.88,0-253.32c0-13.9-0.99-12.71,13.09-12.7c44.77,0.02,89.54-0.06,134.31-0.06
		c63.96,0,127.91,0.04,191.87,0.06c1.92,0,3.83,0,5.74,0.11c1.82,0.11,2.94,1.27,3.18,2.98c0.26,1.89,0.29,3.82,0.29,5.73
		c0.02,29.43,0.01,58.85,0.01,88.28c0,1.28,0.03,2.56-0.04,3.84c-0.26,4.54-1.03,5.27-5.92,5.45c-2.56,0.09-5.12,0.03-7.67,0.03
		c-62.04,0-124.08,0-186.11,0.01c-3.19,0-6.4,0.01-9.58,0.24c-2.15,0.16-3.44,1.64-3.7,3.76c-0.23,1.9-0.28,3.83-0.28,5.74
		c-0.02,29.11-0.01,58.21-0.01,87.32c0,1.28-0.02,2.56,0.06,3.84c0.36,5.25,1.23,6.17,6.24,6.38c2.55,0.11,5.12,0.04,7.67,0.04
		c45.73,0,91.46,0.02,137.19-0.01c13.58-0.01,12.04,0.2,12.07,11.96c0.06,27.51,0.06,55.01,0.09,82.52c0.01,8.33-0.15,8.6-8.54,8.6
		c-47.33,0.05-94.66,0.03-141.98,0.05c-2.88,0-5.75,0.04-8.63,0.13c-2.26,0.07-3.55,1.49-3.81,3.55c-0.32,2.53-0.34,5.1-0.35,7.65
		c-0.02,29.43-0.02,58.85-0.01,88.28c0,1.92-0.03,3.85,0.15,5.75c0.26,2.8,1.47,3.98,4.27,4.12c2.87,0.14,5.75,0.09,8.63,0.09
		c61.72,0,123.44,0,185.15,0c1.92,0,3.84-0.01,5.76,0c9.23,0.08,9.33,0.08,9.34,8.85c0.05,29.11,0.07,58.21-0.01,87.32
		c-0.03,10.91,0.45,10.86-11.33,10.86c-108.73-0.02-217.45-0.01-326.18-0.02c-10.92,0-10.95-0.05-10.95-11.24
		C2467.22,970.35,2467.22,884.95,2467.22,799.55z"/>
	<path class="st0" d="M536.49,799.35c0-84.46-0.01-168.92,0.01-253.38c0-13.61-1.16-12.44,12.27-12.44
		c108.43,0.02,216.86,0.02,325.29-0.01c10.4,0,10.78-0.95,10.75,10.22c-0.06,28.47-0.03,56.95-0.02,85.42
		c0,11.42,0.07,10.81-11.26,10.81c-63.01,0-126.02,0.01-189.03-0.01c-13.36,0-12.97-0.71-12.94,13.21
		c0.05,26.87,0.01,53.75,0.01,80.62c0,0.96-0.01,1.92,0,2.88c0.09,10.58,0.09,10.62,10.68,10.62c45.74,0.02,91.48,0.01,137.22,0.01
		c1.92,0,3.84-0.02,5.76,0.01c9.42,0.14,9.62,0.24,9.64,9.77c0.05,27.51,0.03,55.03,0,82.54c0,2.55-0.09,5.12-0.38,7.65
		c-0.2,1.73-1.39,2.85-3.21,2.92c-3.19,0.13-6.39,0.21-9.59,0.21c-46.06,0.01-92.12-0.02-138.18,0.03
		c-11.29,0.01-12.01-1.79-11.97,12.12c0.09,28.79,0.03,57.59,0.03,86.38c0,1.92-0.06,3.84,0.06,5.76c0.28,4.16,1.19,5.11,5.16,5.27
		c2.55,0.1,5.12,0.03,7.68,0.03c63.65,0.01,127.3,0.02,190.95,0.03c1.6,0,3.2-0.07,4.8,0.03c2.9,0.19,4.11,1.28,4.41,3.99
		c0.17,1.58,0.16,3.19,0.16,4.79c0.01,29.11,0.04,58.23-0.01,87.34c-0.02,10.75-0.12,10.82-10.42,10.82
		c-109.39,0.02-218.78,0.02-328.17,0c-9.65,0-9.69-0.07-9.69-10.43C536.48,970.82,536.49,885.08,536.49,799.35z"/>
	<path class="st0" d="M1538.37,799.22c0-85.4,0-170.81,0-256.21c0-9.49,0.02-9.52,9.57-9.52c110.01,0,220.02,0.01,330.03,0.02
		c8.49,0,8.71,0.13,8.73,8.47c0.08,30.07,0.08,60.13,0.08,90.2c0,1.58-0.2,3.18-0.46,4.74c-0.3,1.78-1.5,2.82-3.27,2.9
		c-2.87,0.13-5.75,0.13-8.63,0.13c-62.68,0.01-125.36,0.03-188.04-0.01c-14.18-0.01-12.98-0.2-12.98,13.1
		c-0.01,27.83-0.02,55.66,0.01,83.48c0.01,10.7,0.06,10.75,10.45,10.75c46.69,0.02,93.38,0.04,140.07-0.01
		c13.39-0.01,13.07-0.27,12.96,13.18c-0.21,26.22-0.07,52.45-0.07,78.68c0,1.92,0.06,3.84-0.04,5.76c-0.23,4.48-1.12,5.31-5.91,5.48
		c-2.87,0.1-5.76,0.04-8.63,0.04c-45.41,0-90.82,0-136.23,0.01c-2.88,0-5.76,0.02-8.63,0.13c-2.28,0.09-3.42,1.65-3.73,3.66
		c-0.29,1.88-0.23,3.82-0.23,5.74c-0.01,30.39-0.02,60.77,0,91.16c0,1.91,0.09,3.83,0.33,5.73c0.23,1.78,1.44,2.86,3.2,2.99
		c2.23,0.17,4.47,0.16,6.71,0.16c64.28,0.02,128.56,0.04,192.83,0.04c10.15,0,10.21-0.04,10.22,9.91c0.03,29.11,0.04,58.21,0,87.32
		c-0.01,9.52-0.21,9.73-9.64,9.74c-47.65,0.03-95.3,0.02-142.95,0.02c-61.08,0-122.16,0-183.24-0.01c-2.88,0-5.76,0.03-8.62-0.22
		c-2.07-0.18-3.56-1.41-3.7-3.67c-0.13-2.23-0.17-4.47-0.17-6.71C1538.37,970.67,1538.38,884.95,1538.37,799.22
		C1538.37,799.22,1538.37,799.22,1538.37,799.22z"/>
	<path class="st0" d="M2440.26,534.65c0.2,3.52-1.62,6.61-2.89,9.8c-12.41,31.17-24.84,62.34-37.33,93.47
		c-55.55,138.49-111.12,276.99-166.72,415.46c-6.01,14.96-3.75,13.6-19.79,13.61c-31.03,0.03-62.06,0-93.09,0.01
		c-11.37,0-11.05,0.85-15.42-10.05c-68.39-170.53-136.8-341.05-205.22-511.56c-5.35-13.33-3.29-11.84,8.2-11.85
		c31.03-0.02,62.06-0.04,93.09,0.03c4.46,0.01,9.02-0.01,13.37,0.85c16.25,3.22,27.71,12.61,34.04,27.95
		c2.68,6.49,4.84,13.2,7.23,19.81c33.21,91.96,66.45,183.91,99.61,275.88c3.79,10.52,7.18,21.18,10.78,31.76
		c0.61,1.81,1.29,3.6,2.07,5.34c0.16,0.36,0.91,0.53,1.42,0.63c0.23,0.05,0.65-0.23,0.79-0.47c0.47-0.83,0.97-1.67,1.25-2.57
		c17.65-57.45,39.17-113.55,59.22-170.17c17.49-49.4,35.27-98.69,52.97-148.01c1.62-4.51,3.25-9.05,5.38-13.32
		c8.95-17.89,23.3-27.57,43.56-27.62c33.59-0.08,67.18-0.03,100.76,0C2435.72,533.65,2438,533.16,2440.26,534.65z"/>
	<path class="st1" d="M3174.4,358.98c-0.09-5.83,0.78-9.89,2.42-13.74c1.38-3.23,3.46-4.34,6.85-3.88c1.26,0.17,2.52,0.47,3.74,0.82
		c24.93,7.17,49.07,16.16,71.9,28.73c34,18.72,66.29,39.82,95.47,65.53c13.22,11.64,25.67,24.04,37.36,37.22
		c2.76,3.11,5.38,6.35,9.11,8.41c3.11,1.73,5.06,1.62,7.92-0.59c3.36-2.59,5.53-6.16,7.9-9.58c12.58-18.12,24.86-36.46,37.83-54.29
		c55.1-75.8,117-145.49,187.41-207.46c41.59-36.6,85.1-70.67,132.31-99.82c29.69-18.33,60.5-34.49,92.72-47.91
		c6.48-2.7,12.98-5.36,19.58-7.71c5.21-1.86,10.63-1.65,15.92-0.09c2.05,0.61,2.71,3.15,1.32,4.61c-1.32,1.38-2.77,2.65-4.23,3.89
		c-110.32,93.1-203.44,201.31-282.79,321.66c-57.83,87.71-107.34,179.99-151.35,275.3c-14.87,32.2-29.12,64.67-42.66,97.45
		c-1.33,3.23-2.93,6.36-4.51,9.48c-0.19,0.37-1.06,0.47-1.64,0.56c-0.73,0.12-1.11-0.33-1.14-1.16c-0.01-0.31-0.13-0.62-0.16-0.94
		c-7.87-77.18-36.96-146.39-79.73-210.26c-30.63-45.75-68.2-85.37-109.91-121.13c-7.77-6.66-15.48-13.46-23.83-19.33
		c-15.46-10.87-22.98-26.13-26.22-44.07C3175.2,366.29,3174.78,361.83,3174.4,358.98z"/>
	<path class="st0" d="M939.64,799.21c0-84.47,0-168.94,0-253.4c0-2.88-0.02-5.76,0.13-8.64c0.11-2.25,1.53-3.49,3.73-3.54
		c5.12-0.12,10.23-0.15,15.35-0.15c34.55,0.01,69.09,0.04,103.64,0.06c0.64,0,1.28,0,1.92,0c9.44,0.07,9.45,0.07,9.57,9.55
		c0.05,3.84,0.02,7.68,0.02,11.52c0,129.58-0.01,259.16,0.01,388.75c0,14.28-1.31,12.9,12.87,12.92c56.3,0.1,112.6,0.09,168.9-0.01
		c10.78-0.02,10.73,0.05,10.72,10.37c-0.06,29.76-0.01,59.51-0.03,89.27c0,2.56-0.01,5.12-0.24,7.67c-0.16,1.74-1.33,2.93-3.12,3.1
		c-2.22,0.21-4.46,0.31-6.69,0.31c-102.04,0.01-204.09,0-306.13,0.02c-11.36,0-10.63-0.46-10.63-10.55
		C939.63,970.71,939.64,884.96,939.64,799.21z"/>
	<path class="st2" d="M1455.81,800.97c0,85.41,0,170.83,0,256.24c0,9.71-0.01,9.78-9.37,9.79c-38.7,0.03-77.4,0.03-116.1,0
		c-9.85-0.01-10-0.19-10-10.35c-0.02-62.7-0.01-125.4-0.01-188.1c0-108.45-0.01-216.89-0.01-325.34c0-9.63,0.03-9.68,9.49-9.68
		c38.7-0.01,77.4,0,116.1,0.02c9.83,0.01,9.88,0.06,9.88,10.22C1455.8,629.5,1455.8,715.23,1455.81,800.97
		C1455.8,800.97,1455.8,800.97,1455.81,800.97z"/>
	<path class="st3" d="M1690.34,1434.37c-532.89,0-1065.77,0-1598.66-0.02c-4.47,0-8.94-0.16-13.4-0.43
		c-1.37-0.08-2.32-1.28-2.25-2.64c0.06-1.33,1.03-2.34,2.39-2.61c1.24-0.24,2.53-0.31,3.81-0.34c2.56-0.05,5.12-0.02,7.68-0.02
		c1065.45,0,2130.9,0,3196.36,0c3.84,0,7.68-0.02,11.51,0.1c1.23,0.04,2.56,0.3,3.63,0.86c0.69,0.36,1.37,1.47,1.36,2.24
		c-0.01,0.75-0.74,1.84-1.44,2.15c-1.11,0.5-2.45,0.62-3.7,0.65c-3.84,0.08-7.68,0.04-11.51,0.04
		C2754.19,1434.37,2222.27,1434.37,1690.34,1434.37z"/>
	<path class="st4" d="M3417.58,211.46c53.72,0,107.44,0.01,161.17-0.01c5.49,0,10.85,0.63,15.85,3.07c3.94,1.92,4.58,4.04,2.12,7.56
		c-8.94,12.8-21.09,20.26-36.75,21.53c-4.45,0.36-8.95,0.31-13.42,0.3c-81.86-0.17-163.72-0.39-245.58-0.54
		c-14.39-0.03-28.78,0.16-43.17,0.24c-8.05,0.05-15.91,1.31-23.59,3.71c-12.5,3.9-20.98,11.99-24.74,24.59
		c-3.4,11.4-5.65,22.96-3.45,34.97c0.52,2.81,0.66,5.73,0.57,8.59c-0.14,4.2-2.01,6.27-6.12,7.49c-13.24,3.93-24.84-3.65-25.98-17.5
		c-1.09-13.17,0.38-26.21,4.33-38.86c1.52-4.86,3.41-9.65,5.59-14.26c7.6-16.08,19.96-27.09,36.44-33.61
		c12.36-4.89,25.26-6.83,38.45-7.1c9.91-0.2,19.83-0.07,29.74-0.07c42.85,0,85.7,0,128.55,0
		C3417.58,211.54,3417.58,211.5,3417.58,211.46z"/>
	<path class="st5" d="M464.63,1291.26c1.61-0.85,2.28-2.26,3.03-3.7c14.63-28.06,29.29-56.11,43.95-84.15
		c0.59-1.13,1.3-2.22,1.78-3.4c2.9-7.16,8.06-10.29,15.84-9.55c4.12,0.39,8.31-0.04,12.46,0.16c3.49,0.17,4.6,1.2,5.18,4.47
		c0.38,2.19,0.75,4.47,0.54,6.65c-0.93,9.59-0.37,19.18-0.36,28.77c0.02,34.56,0.03,69.11,0,103.67c-0.01,10.96-0.06,10.93-11.27,11
		c-15.5,0.11-14.19,0.22-14.17-13.96c0.05-27.52,0.02-55.03,0.01-82.55c0-2.24-0.12-4.47-0.13-6.71c-0.01-0.81-0.3-1.15-1-1.35
		c-0.69-0.2-1.19-0.12-1.58,0.58c-1.23,2.23-2.49,4.45-3.68,6.71c-11.47,21.78-22.91,43.57-34.4,65.34
		c-1.49,2.82-3.14,5.57-4.89,8.24c-4.91,7.51-18.68,6.33-22.3-0.58c-1.33-2.55-2.87-4.99-4.22-7.52
		c-11.56-21.73-23.09-43.48-34.66-65.2c-1.34-2.52-2.89-4.94-4.37-7.39c-0.41-0.68-1.01-0.72-1.64-0.18
		c-0.21,0.18-0.56,0.38-0.57,0.59c-0.12,2.55-0.25,5.11-0.25,7.66c-0.02,28.48-0.04,56.95,0,85.43c0.01,10.72,0.33,10.62-10.4,10.87
		c-16.98,0.39-14.96-0.47-14.97-14.21c-0.02-42.55,0.04-85.11,0.04-127.66c0-14.27-0.81-12.65,13.06-12.83
		c3.51-0.05,7.03,0.18,10.54,0.39c3.43,0.2,6.08,1.71,7.71,4.86c1.32,2.55,2.77,5.04,4.11,7.59c15.04,28.56,30.07,57.14,45.12,85.7
		C463.56,1289.79,464.13,1290.52,464.63,1291.26z"/>
	<path class="st6" d="M3656.21,497.08c0,35.8,0,71.61,0,107.41c0,9.28-0.39,18.51-2.42,27.63c-7.52,33.83-29.37,52.8-61.66,58.91
		c-6.6,1.25-13.28,1.84-20.02,1.82c-24.29-0.09-48.58-0.15-72.86-0.15c-4.15,0-8.29,0.38-12.44,0.5c-2.23,0.06-4.47,0.09-6.68-0.14
		c-2.57-0.26-4.17-2.11-4.25-4.46c-0.3-7.85,1.25-15.28,6.58-21.41c2.62-3.01,6.13-4.63,10.09-4.91c3.5-0.25,7.02-0.22,10.54-0.24
		c22.05-0.16,44.1-0.25,66.15-0.48c5.1-0.05,10.24-0.27,15.3-0.89c26.19-3.23,36.15-17.66,38.72-39c0.87-7.28,1.11-14.67,1.13-22.01
		c0.09-52.42,0.03-104.85,0.08-157.27c0.01-7.67,0.28-15.34,0.59-23c0.36-8.82,3.06-16.94,7.88-24.32
		c5.61-8.59,11.96-16.59,19.62-23.47c0.65-0.59,1.44-1.27,2.54-0.62c0.99,0.58,1,1.53,1.03,2.42c0.08,2.88,0.09,5.75,0.09,8.63
		C3656.21,420.36,3656.21,458.72,3656.21,497.08z"/>
	<path class="st5" d="M2483.07,1292.93c0.13-3.07,0.37-6.13,0.38-9.2c0.03-27.82,0.01-55.65,0.02-83.47c0-8.61-1.08-9.88,9.43-9.78
		c17.9,0.16,15.72-1.93,15.75,14.95c0.08,42.86,0.03,85.71,0.02,128.57c0,11.31-0.04,10.98-10.99,11.29
		c-7.56,0.22-12.51-3.03-16.93-8.8c-21.95-28.69-44.09-57.24-66.29-85.75c-2.18-2.8-3.31-6.93-7.75-7.46
		c-2.05,3.23-0.93,6.81-0.93,10.19c-0.04,27.18,0.09,54.37,0.16,81.55c0,1.6,0.08,3.2-0.04,4.79c-0.24,3.26-1.56,5.04-4.53,5.13
		c-5.74,0.19-11.49,0.1-17.24-0.09c-2.13-0.07-3.48-1.57-3.68-3.73c-0.21-2.22-0.28-4.47-0.28-6.7c-0.01-44.45-0.02-88.91,0-133.36
		c0.01-10.68,0.07-10.68,10.65-10.56c0.96,0.01,1.92,0.07,2.88,0.02c5.58-0.26,9.53,2.04,12.97,6.58
		c14.08,18.61,28.47,36.99,42.74,55.46c8.41,10.88,16.8,21.77,25.23,32.63c2.15,2.77,4.41,5.45,6.61,8.18
		C2481.87,1293.22,2482.47,1293.08,2483.07,1292.93z"/>
	<path class="st5" d="M2687.28,1268.02c0-21.72,0-43.45,0-65.17c0-1.28-0.03-2.56,0.01-3.83c0.26-8.12,0.57-8.49,8.87-8.48
		c16.29,0.03,32.58,0.04,48.87,0.27c9.3,0.14,18.45,1.43,27.15,5.03c10.58,4.38,18.21,11.59,21.88,22.64
		c5.37,16.16-0.27,32.61-14.44,41.96c-1.59,1.05-3.32,1.88-4.93,2.91c-1.08,0.69-0.91,2.52,0.3,3.09c2.3,1.09,4.7,1.99,6.97,3.16
		c11.87,6.11,18.01,15.74,18.04,29.24c0.04,18.91-8.62,32.24-25.54,40.34c-8.21,3.93-17.04,5.57-26.01,5.73
		c-18.2,0.33-36.41,0.2-54.62,0.24c-0.95,0-1.92-0.11-2.85-0.29c-1.69-0.33-2.96-1.25-3.18-3.07c-0.23-1.89-0.38-3.81-0.38-5.72
		c-0.03-22.68-0.02-45.37-0.02-68.05C2687.37,1268.02,2687.32,1268.02,2687.28,1268.02z M2715.91,1299.98c0.03,0,0.06,0,0.08,0
		c0,6.07-0.13,12.15,0.06,18.21c0.08,2.7,1.56,4.03,4.38,4.04c9.59,0.04,19.18-0.01,28.76-0.28c2.51-0.07,5.07-0.81,7.48-1.61
		c6.45-2.13,10.91-6.46,13.36-12.82c5.76-14.93-2.76-28.5-18.59-29.15c-10.22-0.42-20.46-0.3-30.69-0.27
		c-3.39,0.01-4.7,1.27-4.79,4.61C2715.79,1288.47,2715.91,1294.23,2715.91,1299.98z M2731.95,1257.26c0-0.03,0-0.07,0-0.1
		c3.51,0,7.02-0.02,10.52,0.01c4.22,0.04,8.19-1.13,12.1-2.52c7.78-2.76,11.62-8.64,12.46-16.56c0.3-2.81,0.16-5.78-0.38-8.56
		c-1.46-7.53-5.75-12.72-13.47-14.44c-3.72-0.83-7.51-1.6-11.3-1.77c-6.68-0.3-13.39-0.22-20.09-0.12
		c-4.63,0.06-5.77,1.06-5.86,5.56c-0.2,10.2-0.3,20.41-0.18,30.62c0.09,7.45,0.61,7.77,8.53,7.88
		C2726.85,1257.29,2729.4,1257.26,2731.95,1257.26z"/>
	<path class="st7" d="M1133.54,1294.05c0-4.97,0-8.13,0-11.29c-0.02-27.49-0.08-54.99-0.06-82.48c0-9.56,0.08-9.59,9.56-9.76
		c3.51-0.06,7.04-0.08,10.54,0.18c3.78,0.29,4.83,1.52,5.24,5.49c0.16,1.59,0.21,3.19,0.2,4.79c-0.06,44.43-0.12,88.87-0.2,133.3
		c0,2.24-0.11,4.47-0.18,6.71c-0.07,2.3-1.5,3.54-3.53,3.83c-4.44,0.64-8.91,0.63-13.35-0.15c-2.6-0.46-4.86-1.61-6.58-3.64
		c-2.27-2.68-4.53-5.38-6.67-8.16c-22.09-28.57-44.14-57.17-66.23-85.74c-0.97-1.26-2.11-2.38-3.15-3.59
		c-0.52-0.6-1.1-0.8-1.66-0.31c-0.43,0.37-0.98,0.91-1.01,1.4c-0.14,2.55-0.17,5.1-0.17,7.65c-0.01,26.53-0.04,53.07,0.01,79.6
		c0.03,14.49,0.19,12.89-12.94,13.34c-2.54,0.09-5.12,0-7.65-0.29c-3.1-0.36-4.42-1.7-4.99-4.88c-0.34-1.87-0.47-3.8-0.47-5.71
		c0.05-34.2,0.13-68.41,0.22-102.61c0.03-10.87,0.06-21.74,0.17-32.6c0.08-8.17,0.53-8.55,8.75-8.62c0.64-0.01,1.28,0.06,1.92-0.01
		c7.38-0.77,12.51,2.22,17.06,8.21c21.83,28.77,44.03,57.25,66.13,85.82C1126.77,1287.49,1128.84,1290.69,1133.54,1294.05z"/>
	<path class="st5" d="M282.39,1346.28c-19.62,0.08-37.03-5.84-51.56-19.34c-10.07-9.35-17.05-20.62-20.59-33.91
		c-4.36-16.34-5.27-32.79-0.32-49.15c9.42-31.17,29.95-49.49,62.54-54.12c15.65-2.23,30.52-0.09,44.91,6.09
		c14.94,6.41,26.24,16.81,33.58,31.35c13.24,26.2,14.02,52.65,1.08,79.18c-11.26,23.1-30.18,35.62-55.3,39.27
		c-2.52,0.37-5.09,0.5-7.64,0.62C286.86,1346.36,284.62,1346.28,282.39,1346.28z M331.07,1268.09c0.58-6.43-0.21-13.11-2.05-19.59
		c-4.47-15.69-13.35-27.51-29.68-32.3c-3.66-1.07-7.47-1.92-11.26-2.18c-16.05-1.14-36.86,3.96-46.24,25.59
		c-8.03,18.5-8,37.34-0.27,55.91c4.93,11.83,13.83,19.69,26.19,23.57c7.47,2.35,15.06,2.74,22.75,1.94
		c16.26-1.7,28.03-9.87,35.09-24.66C329.81,1287.54,331.49,1278.19,331.07,1268.09z"/>
	<path class="st2" d="M3450.76,340.83c0.35,29.3-23.85,58.87-60.45,58.49c-27.26-0.28-58.6-20.97-58.5-59.53
		c0.09-35.3,28.12-59.39,60.04-59.02C3429.33,281.19,3451.98,312.11,3450.76,340.83z"/>
	<path class="st8" d="M1622.1,1343.35c-1.25,1.37-2.84,1.46-4.43,1.45c-6.39-0.05-12.78-0.19-19.17-0.17
		c-4.4,0.01-7.89-1.53-11.11-4.64c-3.37-3.26-5.7-8.76-10.65-9c-4.31-0.21-7.66,4.14-11.54,6.29c-14.5,8.06-30.03,10.99-46.29,8.36
		c-31.74-5.13-48.77-39.51-30.36-67.2c3.77-5.67,8.51-10.35,14.12-14.17c1.85-1.26,3.73-2.46,5.59-3.71c1.97-1.31,2.08-3,0.98-4.94
		c-0.78-1.39-1.52-2.81-2.29-4.21c-5.28-9.62-6.61-19.91-5.03-30.65c1.42-9.64,5.84-17.69,13.98-23.08
		c16.59-10.98,33.87-12.38,51.52-2.42c9.18,5.18,14.34,13.4,16.94,23.39c0.8,3.07-0.28,5.09-3.34,5.8
		c-4.34,1.01-8.75,1.77-13.16,2.45c-2.82,0.43-4.93-0.9-6.29-3.4c-1.07-1.96-2.07-3.97-3.23-5.87c-3.72-6.07-9.24-8.72-16.22-7.9
		c-7.26,0.84-12.42,4.63-15.01,11.66c-2.11,5.73-1.43,11.32,0.74,16.83c1.65,4.21,4.09,7.96,7.18,11.25
		c12.72,13.49,25.47,26.95,38.23,40.39c0.87,0.92,1.86,1.76,2.92,2.45c1.23,0.8,2.46,0.54,3.17-0.79
		c2.73-5.11,4.41-10.58,5.35-16.29c0.52-3.15,1.01-6.32,1.77-9.41c0.89-3.64,2.16-4.8,6.06-4.83c16.79-0.13,16.85-2.27,14.36,15.84
		c-1.49,10.85-5.48,21.01-11.03,30.45c-1.8,3.05-1.31,5.26,0.99,7.65c6.66,6.9,13.28,13.84,19.79,20.87
		C1618.77,1338.08,1621.64,1339.91,1622.1,1343.35z M1535.9,1324.65c-0.35,0,1.58,0.16,3.48-0.03c7.5-0.72,14.18-3.62,20.28-7.93
		c2.02-1.43,2.24-2.98,0.72-4.84c-1.21-1.48-2.54-2.87-3.86-4.25c-9.07-9.46-18.15-18.91-27.24-28.35c-1.11-1.15-2.24-2.28-3.4-3.37
		c-1.62-1.52-3.43-1.68-5.17-0.32c-5.13,4.01-8.96,8.9-11.22,15.17C1502.97,1308.78,1516.15,1326.25,1535.9,1324.65z"/>
	<path class="st8" d="M1790.24,1242.2c0-13.75-0.01-27.5,0.01-41.25c0-2.24-0.02-4.48,0.18-6.71c0.16-1.71,1.23-3.23,2.97-3.26
		c7.33-0.15,14.67-0.15,22-0.02c1.71,0.03,2.94,1.39,3.09,3.14c0.21,2.54,0.18,5.11,0.18,7.67c0.01,24.94,0.02,49.88,0.01,74.82
		c0,6.73,0.28,13.41,2.03,19.97c3.92,14.69,15.42,23.76,30.56,24.47c16.36,0.77,33.62-7.25,36.16-33.84c0.24-2.54,0.1-5.11,0.1-7.67
		c0.01-25.26,0-50.52,0.01-75.78c0-2.56-0.07-5.12,0.05-7.67c0.2-4.18,1.13-5.33,5.02-5.43c6.07-0.16,12.15-0.18,18.22,0
		c4.22,0.13,5.33,1.52,5.61,6.06c0.08,1.27,0.05,2.56,0.05,3.84c0,27.5-0.01,55,0,82.5c0,8.39-1.22,16.62-4.14,24.46
		c-7.62,20.49-22.15,33.29-43.65,37.56c-11.71,2.32-23.53,2.27-35.16-1c-22.39-6.29-35.85-21.2-41.38-43.48
		c-1.38-5.57-1.98-11.31-1.93-17.12C1790.31,1269.7,1790.24,1255.95,1790.24,1242.2z"/>
	<path class="st8" d="M2288.34,1345.04c-5.11,0-8,0.22-10.85-0.05c-4.84-0.46-8.3-2.89-10.02-7.66c-2.83-7.81-5.8-15.56-8.7-23.34
		c-0.44-1.19-0.68-2.48-1.26-3.6c-0.92-1.79-2.39-2.98-4.52-3.05c-1.92-0.06-3.83-0.14-5.75-0.14c-14.7-0.01-29.41-0.01-44.11,0
		c-1.28,0-2.56,0.04-3.84,0.01c-3.28-0.08-5.46,1.43-6.57,4.5c-1.73,4.81-3.44,9.62-5.19,14.42c-1.42,3.9-2.84,7.8-4.35,11.67
		c-1.67,4.25-4.8,6.83-9.4,7.01c-5.73,0.22-11.47,1.21-17.21,0.26c-3.21-0.54-4.37-2.34-3.51-5.43c0.51-1.84,1.2-3.64,1.89-5.43
		c17.23-44.35,34.44-88.71,51.73-133.03c4.65-11.91,3.16-10.58,15.78-10.65c4.16-0.02,8.31,0,12.47-0.05
		c3.23-0.04,5.51,1.27,6.7,4.34c0.57,1.49,1.17,2.97,1.75,4.46c17.29,44.67,34.57,89.34,51.88,134c4.42,11.4,5.42,11.79-8.18,11.84
		C2286.75,1345.11,2286.43,1345.14,2288.34,1345.04z M2224.48,1223.05c-2.73,7.52-5.11,14.1-7.49,20.68
		c-4.44,12.27-8.91,24.54-13.3,36.83c-1.51,4.23-0.82,5.33,3.5,5.36c12.43,0.07,24.86,0.01,37.29-0.05c0.86,0,1.93-0.05,2.28-1.22
		C2245.53,1274.53,2230.91,1233.7,2224.48,1223.05z"/>
	<path class="st8" d="M941.17,1307.21c-8.63,0-17.26,0.04-25.9-0.02c-3.31-0.02-5.31,1.37-6.42,4.54
		c-2.51,7.24-5.14,14.44-7.86,21.61c-3.97,10.46-5.68,11.63-16.92,11.83c-3.52,0.06-7.04,0.09-10.55-0.06
		c-5.18-0.21-5.8-1.11-4.18-5.68c0.53-1.5,1.12-2.99,1.7-4.48c17.05-44.08,34.1-88.16,51.15-132.25
		c5.4-13.97,4.28-12.05,17.74-12.19c3.52-0.04,7.05,0.2,10.55-0.04c4.25-0.29,6.54,1.81,7.87,5.51c0.54,1.5,1.13,2.99,1.71,4.48
		c17.26,44.68,34.53,89.37,51.79,134.05c0.12,0.3,0.27,0.58,0.38,0.88c3.51,9.29,3.26,9.69-6.38,9.78
		c-3.52,0.03-7.03,0.05-10.55-0.04c-6.08-0.15-10.18-2.88-12.17-8.89c-2.31-6.97-4.96-13.82-7.53-20.7
		c-3.27-8.74-2.57-8.36-12.37-8.35c-7.35,0.01-14.71,0-22.06,0C941.17,1307.2,941.17,1307.2,941.17,1307.21z M942.29,1285.75
		c0,0.01,0,0.02,0,0.03c6.05,0,12.09,0.11,18.13-0.04c3.21-0.08,3.95-1.2,2.89-4.22c-6.66-18.89-13.39-37.76-20.14-56.62
		c-0.18-0.49-0.75-1-1.26-1.17c-1.26-0.44-1.67,0.66-2,1.49c-7.1,17.72-13.47,35.7-19.1,53.94c-0.28,0.91-0.42,1.86-0.57,2.8
		c-0.38,2.37,0.47,3.7,2.97,3.75C929.57,1285.85,935.93,1285.75,942.29,1285.75z"/>
	<path class="st8" d="M2658.37,1344.89c-16.52,0.9-16.92-3.11-20.73-14.19c-2.18-6.34-4.64-12.57-6.85-18.9
		c-1.09-3.11-2.99-4.64-6.36-4.61c-17.89,0.13-35.77,0.2-53.66,0.24c-2.57,0.01-4.17,1.12-5.04,3.48
		c-2.53,6.89-5.12,13.76-7.61,20.66c-4.54,12.63-5.76,13.54-19.43,13.59c-3.51,0.01-7.02-0.05-10.52-0.28
		c-2.32-0.15-3.42-1.84-2.75-3.94c0.68-2.12,1.49-4.21,2.29-6.29c17.52-45.22,35.05-90.43,52.58-135.65
		c0.58-1.49,1.07-3.01,1.69-4.47c1.1-2.61,3.1-4.01,5.94-4.02c6.71-0.03,13.41-0.04,20.12,0c2.82,0.02,4.86,1.42,6.06,3.94
		c0.95,2.01,1.79,4.09,2.59,6.17c17.16,44.33,34.3,88.67,51.44,133.01c0.92,2.38,1.85,4.76,2.61,7.19c0.63,2.02-0.59,3.88-2.81,4.02
		C2664.76,1345.04,2661.56,1344.89,2658.37,1344.89z M2620.91,1285.07c-0.65-2.2-0.94-3.41-1.35-4.58
		c-4.9-13.82-9.81-27.63-14.73-41.44c-1.6-4.5-3.19-9.01-4.88-13.48c-0.3-0.79-0.93-1.83-1.61-2.02c-1.78-0.49-1.92,1.23-2.31,2.32
		c-3.87,10.8-7.7,21.62-11.52,32.43c-2.65,7.51-5.22,15.05-7.93,22.55c-1.01,2.79-0.83,4.67,3.44,4.82
		c8.61,0.3,17.22,0.44,25.83,0.45C2610.56,1286.13,2615.35,1286.43,2620.91,1285.07z"/>
	<path class="st7" d="M3119.58,1497.58c-2.7,1.65-2.91,3.65-3.55,5.43c-11.65,32.47-23.32,64.94-34.99,97.4
		c-0.43,1.2-0.82,2.44-1.42,3.56c-0.74,1.4-1.59,2.86-3.46,2.88c-1.82,0.02-2.92-1.22-3.67-2.66c-0.73-1.41-1.23-2.94-1.77-4.44
		c-8.63-24.05-17.19-48.13-26-72.11c-0.86-2.35-0.75-6.64-4.43-6.32c-2.67,0.23-2.81,3.93-3.67,6.27
		c-8.58,23.39-17.11,46.81-25.7,70.2c-0.99,2.69-2.13,5.33-3.41,7.89c-0.94,1.88-3.63,1.84-4.66-0.05c-1.06-1.96-2.01-4-2.77-6.09
		c-11.82-32.75-23.61-65.52-35.4-98.28c-0.54-1.5-1.13-3.01-1.45-4.56c-0.27-1.3,0.1-2.66,1.5-3.15c3.72-1.31,7.52-1.16,11.29-0.14
		c1.35,0.37,2.03,1.51,2.52,2.71c1.07,2.67,2.12,5.34,3.1,8.05c6.29,17.43,12.53,34.87,18.84,52.29c0.97,2.69,2.15,5.31,3.36,7.9
		c0.6,1.28,2.4,1.36,2.95,0.16c1.34-2.89,2.7-5.78,3.8-8.77c6.94-18.89,13.82-37.8,20.71-56.71c0.86-2.37,1.23-5.1,4.27-5.86
		c3.78-0.94,7.59-1.58,11.2,0.43c1.04,0.58,1.98,1.65,2.51,2.72c0.99,1.99,1.69,4.14,2.45,6.24c6.57,18.01,13.11,36.02,19.72,54.02
		c1.19,3.24,1.82,6.8,4.52,9.2c2.05,0.56,2.03-1.23,2.58-2.13c0.65-1.07,0.97-2.35,1.4-3.55c6.9-19.24,13.81-38.49,20.7-57.74
		c3.42-9.56,2.76-10.09,13.39-9.41c4.14,0.26,8.32,0.31,12.47,0.11c23.34-1.13,46.68-0.07,70.02-0.38c1.92-0.02,3.84-0.05,5.75,0.1
		c4.15,0.34,5.49,1.81,5.76,6.12c0.06,0.96,0.08,1.92,0.01,2.88c-0.32,4.09-1.85,5.67-6.01,5.77c-6.39,0.17-12.79,0.15-19.19,0.22
		c-1.92,0.02-3.85-0.06-5.75,0.12c-3.24,0.31-4.61,1.66-4.83,4.82c-0.17,2.55-0.11,5.12-0.11,7.67c-0.01,24.63,0,49.26-0.01,73.9
		c0,2.88,0.03,5.76-0.18,8.63c-0.22,3.15-1.56,4.39-4.85,4.82c-1.26,0.16-2.55,0.23-3.82,0.19c-5.22-0.19-6.61-1.48-6.65-7.05
		c-0.11-17.59-0.07-35.19-0.09-52.78c-0.01-11.2,0.06-22.39-0.07-33.59c-0.06-5.11-1.14-6.25-6.15-6.5
		c-5.43-0.27-10.87-0.16-16.3-0.24c-1.6-0.02-3.2-0.2-4.79-0.15c-4.46,0.13-7.3-1.77-8.33-6.23
		C3120.67,1500.2,3120.11,1499.04,3119.58,1497.58z"/>
	<path class="st5" d="M578.07,1267.99c0-21.42,0-42.83,0-64.25c0-2.56-0.05-5.12,0.1-7.67c0.27-4.49,1.18-5.49,5.95-5.49
		c17.26,0.03,34.52,0.01,51.76,0.43c8.99,0.21,17.68,2.34,25.87,6.33c12.24,5.97,20.12,15.34,23.31,28.69
		c2.04,8.55,2.26,17.15,0.6,25.68c-3.33,17.11-13.63,28.43-29.81,34.62c-10.04,3.84-20.59,4.21-31.12,4.71
		c-3.19,0.15-6.39-0.02-9.59,0.05c-7.86,0.17-8.27,0.48-8.35,8.02c-0.11,10.87-0.02,21.74-0.04,32.6c0,2.88,0.05,5.76-0.15,8.62
		c-0.22,3.22-1.53,4.65-4.84,4.71c-6.39,0.13-12.78,0.06-19.16-0.17c-3.26-0.11-4.25-1.39-4.45-4.97c-0.14-2.55-0.09-5.11-0.09-7.67
		C578.07,1310.82,578.07,1289.4,578.07,1267.99z M621.52,1213.21c-3.19,0-6.38-0.08-9.57,0.02c-3.92,0.13-5.05,1.13-5.11,5.26
		c-0.15,9.89-0.08,19.78-0.08,29.67c0,5.1-0.06,10.21,0.11,15.31c0.1,2.89,1.28,4.07,4.08,4.28c8.61,0.65,17.22,0.76,25.76-0.75
		c12.58-2.23,20.29-10.91,21.07-23.6c0.12-1.91,0.12-3.83,0.02-5.74c-0.65-12-6.78-19.5-18.26-22.78
		C633.61,1213.2,627.58,1213.2,621.52,1213.21z"/>
	<path class="st7" d="M1329.41,1267.06c0-21.42,0-42.84,0-64.25c0-2.24-0.07-4.48,0.03-6.71c0.21-4.39,1.28-5.39,5.94-5.61
		c1.59-0.08,3.2,0.01,4.79,0.01c24.29,0,48.58,0,72.87,0c1.92,0,3.84-0.05,5.75,0.02c5.76,0.19,6.45,0.84,6.53,6.81
		c0.06,4.47-0.04,8.95-0.22,13.41c-0.07,1.8-1.32,2.91-3.09,3.05c-2.54,0.2-5.1,0.26-7.65,0.27c-15.66,0.09-31.32,0.12-46.98,0.24
		c-8.57,0.06-8.7,0.19-8.74,8.48c-0.05,9.27-0.07,18.54,0.05,27.81c0.05,4.18,0.97,5.19,5.07,5.25c11.5,0.16,23.01,0.18,34.51,0.15
		c13.52-0.04,13.36-0.38,12.98,13.08c-0.02,0.64-0.03,1.28-0.06,1.92c-0.3,7.21-0.44,7.42-7.76,7.48
		c-11.19,0.09-22.37,0.07-33.56,0.1c-2.24,0.01-4.48-0.08-6.71,0.05c-3.36,0.19-4.31,1.26-4.6,4.83c-0.03,0.32-0.04,0.64-0.04,0.96
		c0,10.23-0.08,20.46,0.03,30.69c0.05,5.21,0.84,5.99,6.31,6.03c15.98,0.1,31.96,0.04,47.94,0.06c2.56,0,5.12-0.06,7.67,0.12
		c3.35,0.24,4.56,1.45,4.65,4.76c0.12,4.47,0.12,8.95,0.01,13.42c-0.1,4.1-1.11,5.23-4.87,5.56c-2.22,0.19-4.47,0.15-6.7,0.15
		c-24.29,0.01-48.58,0.01-72.87,0.01c-0.96,0-1.92,0.02-2.88-0.01c-7.63-0.19-8.29-0.8-8.42-8.12c-0.07-3.83-0.02-7.67-0.02-11.51
		c0-19.5,0-39,0-58.5C1329.41,1267.06,1329.41,1267.06,1329.41,1267.06z"/>
	<path class="st8" d="M95.23,1267.71c-0.07,11.17,2.09,20.47,6.34,29.21c8.36,17.18,24.24,26.01,43.88,24.78
		c10.14-0.63,19.45-3.57,27.35-10.24c0.97-0.82,2.02-1.59,3.14-2.17c2.15-1.1,4.42-1.09,6.35,0.37c4.1,3.12,7.4,7.05,10.41,11.17
		c1.31,1.8,0.28,3.63-1.14,5.13c-6.44,6.85-13.78,12.53-22.7,15.65c-21.08,7.37-42.07,7.21-62.62-1.96
		c-12.32-5.5-21.95-14.22-28.69-25.96c-6.97-12.13-11.06-25.14-11.34-39.19c-0.18-8.95-0.3-17.85,1.7-26.73
		c7.15-31.76,30.58-53.29,62.68-57.86c12.59-1.79,24.87-1.37,36.99,2.37c8.97,2.77,17.03,7.29,24.08,13.5
		c2.92,2.57,3.08,4.06,0.79,7.44c-2.33,3.44-4.73,6.85-7.4,10.03c-2.57,3.06-4.96,3.43-8.51,1.68c-2-0.98-3.88-2.21-5.77-3.4
		c-12.66-7.96-26.38-9.57-40.57-5.81c-17.77,4.7-28.01,17.13-32.69,34.37C95.86,1256.26,94.8,1262.63,95.23,1267.71z"/>
	<path class="st5" d="M1209.92,1269.39c-0.29,8.89,1.56,18.83,6.29,28.17c8.34,16.45,25.06,26.16,45.19,24.02
		c9.43-1,18.14-3.61,25.45-9.94c0.96-0.83,2-1.63,3.12-2.18c2.47-1.22,4.97-1.22,7.21,0.55c1.24,0.99,2.4,2.12,3.44,3.32
		c8.74,10,10.69,8.16-1.38,18.99c-4.55,4.09-9.86,7.17-15.61,9.2c-19.67,6.94-39.43,7.45-59.06-0.12
		c-14.86-5.73-26.55-15.43-33.78-29.71c-12.96-25.58-15.05-51.86-3.57-78.6c10.61-24.7,29.73-38.43,55.93-42.81
		c12.77-2.14,25.44-2.08,37.94,1.79c9.61,2.97,18.22,7.67,25.59,14.54c2.38,2.22,2.58,3.2,0.82,5.74
		c-2.54,3.67-5.09,7.37-7.99,10.76c-2.87,3.35-5.33,3.62-9.38,1.54c-1.98-1.02-3.79-2.37-5.71-3.51
		c-15.49-9.19-31.49-9.37-47.78-2.49c-8.24,3.48-14.25,9.54-18.8,17.14C1212.15,1245.31,1210,1254.02,1209.92,1269.39z"/>
	<path class="st5" d="M1720.44,1346.31c-19.58,0.28-34.92-5.05-48.17-16.22c-3.97-3.35-4.08-4.11-1.32-8.91
		c1.75-3.04,3.54-6.09,5.68-8.85c2.8-3.61,6.1-4.43,10.15-2.37c3.69,1.87,7.12,4.25,10.63,6.47c7.55,4.76,15.78,6.69,24.66,6.19
		c3.58-0.2,6.97-1.14,10.16-2.58c7.44-3.36,10.88-9.56,11.53-17.44c0.65-7.88-2.89-13.64-9.65-17.3c-3.62-1.96-7.54-3.43-11.44-4.81
		c-5.71-2.02-11.55-3.69-17.29-5.64c-5.15-1.75-10.09-3.98-14.64-7.02c-6.87-4.59-11.76-10.66-14.2-18.66
		c-7.72-25.33,3.8-50.54,30.86-57.83c19.72-5.31,38.66-2.57,55.58,9.8c1.03,0.75,2.06,1.52,2.99,2.38c1.31,1.22,1.62,2.86,0.89,4.37
		c-1.94,4.02-3.91,8.05-6.18,11.89c-1.86,3.15-4.85,4.22-8.24,2.89c-3.25-1.28-6.31-3.05-9.38-4.74c-6.9-3.79-14.21-5.53-22.11-4.9
		c-3.57,0.28-6.93,1.23-10.1,2.77c-10.71,5.18-14.03,21.29-2.08,29.05c4.33,2.81,9.07,4.69,13.87,6.43
		c5.4,1.96,10.86,3.75,16.27,5.67c2.4,0.85,4.8,1.75,7.13,2.79c21.98,9.75,27.51,26.27,24.11,46.74
		c-3.61,21.75-20.44,36.94-42.43,39.35C1724.57,1346.16,1721.37,1346.25,1720.44,1346.31z"/>
	<path class="st8" d="M1982.98,1346.14c-15.56,0.56-29.59-4.01-42.21-13c-2.07-1.47-4-3.19-5.8-4.98c-1.2-1.19-1.5-2.91-0.61-4.43
		c2.25-3.86,4.42-7.79,7.03-11.4c2.63-3.63,6.12-4.46,10.14-2.44c3.69,1.86,7.14,4.23,10.63,6.47c8.13,5.22,17.02,7.13,26.55,6.02
		c10.67-1.24,17.49-7.15,19.53-16.88c1.6-7.6-0.6-13.91-6.86-18.62c-4.14-3.11-8.92-4.91-13.82-6.45
		c-5.78-1.82-11.57-3.64-17.31-5.58c-5.15-1.74-10.1-3.97-14.66-6.98c-7.82-5.14-12.87-12.21-15.14-21.35
		c-6.99-28.16,10.3-53.12,39.11-56.79c16.11-2.05,31.2,0.2,45.02,9.05c9.04,5.79,9.05,5.98,3.79,15.82
		c-5.4,10.12-7.05,10.76-16.99,5.2c-7.67-4.29-15.49-7.48-24.51-6.91c-3.9,0.25-7.6,1.05-11.06,2.8c-6.27,3.17-9.41,8.31-9.6,15.38
		c-0.13,5.19,1.79,9.32,5.79,12.53c3.53,2.84,7.58,4.68,11.83,6.17c7.22,2.55,14.47,5.05,21.6,7.84c4.15,1.62,8.25,3.49,12.12,5.69
		c11.12,6.33,17.01,16.16,18.07,28.78c2.69,32.17-20.46,53.08-46.88,54.02C1986.82,1346.2,1984.9,1346.14,1982.98,1346.14z"/>
	<path class="st8" d="M3242.06,1260.94c9.28-17.42,18.57-34.86,27.87-52.3c1.95-3.66,4.02-7.26,5.94-10.94
		c2.45-4.68,6.25-7.1,11.54-7.14c5.43-0.04,10.86-0.19,16.29-0.05c4.93,0.13,6.01,2.19,3.82,6.84c-0.68,1.44-1.54,2.79-2.35,4.17
		c-14.6,24.75-29.09,49.56-43.88,74.19c-3.93,6.55-5.76,13.28-5.57,20.89c0.29,12.13,0.18,24.28,0.17,36.42
		c0,2.87-0.15,5.75-0.46,8.6c-0.19,1.74-1.45,2.98-3.19,3.01c-7.02,0.11-14.04,0.13-21.06,0.02c-2.1-0.03-3.56-1.23-3.69-3.55
		c-0.09-1.59-0.19-3.19-0.19-4.78c-0.02-11.5-0.4-23.02,0.08-34.5c0.46-10.94-2.21-20.64-7.86-30.01
		c-14.02-23.23-27.66-46.69-41.33-70.14c-1.71-2.94-5.54-6.11-3.94-9.22c1.96-3.81,6.87-1.5,10.49-1.87
		c2.85-0.29,5.75-0.03,8.62-0.14c6.76-0.25,11.52,2.61,14.7,8.66c10.09,19.21,20.33,38.34,30.51,57.51
		C3239.42,1258.26,3239.81,1260.29,3242.06,1260.94z"/>
	<path class="st7" d="M2118.62,1280.89c0,17.27,0,34.54,0,51.81c0,2.24,0.06,4.48-0.06,6.71c-0.24,4.28-1.41,5.56-5.93,5.7
		c-5.75,0.18-11.51,0.17-17.26-0.03c-4.25-0.15-5.42-1.53-5.65-6.01c-0.13-2.55-0.06-5.12-0.06-7.67c0-35.18,0-70.36-0.01-105.54
		c0-11.46,0.78-10.97-10.9-10.99c-9.59-0.02-19.19,0.07-28.78-0.06c-5.04-0.07-6.11-1.21-6.24-6.3c-0.12-4.47-0.09-8.96,0.09-13.43
		c0.11-2.78,1.49-4.15,4.1-4.41c1.9-0.19,3.83-0.16,5.75-0.16c33.57-0.01,67.15-0.01,100.72,0c1.6,0,3.2-0.03,4.79,0.1
		c2.79,0.23,4.42,1.49,4.49,4c0.15,5.43,0.09,10.87-0.06,16.3c-0.06,2.15-1.44,3.57-3.64,3.72c-2.87,0.19-5.75,0.22-8.62,0.23
		c-9.27,0.04-18.55-0.04-27.82,0.08c-3.51,0.04-4.6,1.19-4.82,4.55c-0.15,2.23-0.09,4.48-0.09,6.71
		C2118.62,1244.43,2118.63,1262.66,2118.62,1280.89z"/>
	<path class="st5" d="M3125.03,1280.45c0,17.26-0.01,34.51,0,51.77c0.01,13.85-0.02,12.78-12.37,12.79c-3.51,0-7.03,0.1-10.54-0.09
		c-4.42-0.24-5.3-1.24-5.51-5.99c-0.13-2.87-0.07-5.75-0.07-8.63c0-34.51-0.06-69.02,0.02-103.54c0.03-13.44-0.55-11.84-12.17-11.91
		c-9.27-0.05-18.53,0.07-27.8-0.06c-4.58-0.07-5.56-1.14-5.68-5.72c-0.12-4.47-0.12-8.95,0.06-13.41c0.13-3.15,1.49-4.52,4.68-5.02
		c1.88-0.29,3.81-0.33,5.72-0.33c32.27,0.05,64.53,0.12,96.8,0.21c2.87,0.01,5.75,0.05,8.61,0.29c2.16,0.18,3.49,1.56,3.52,3.77
		c0.07,5.43,0.08,10.86-0.01,16.29c-0.04,2.21-1.42,3.55-3.57,3.74c-2.54,0.22-5.1,0.21-7.65,0.22c-9.58,0.03-19.17-0.04-28.75,0.07
		c-3.99,0.04-4.99,1.14-5.24,5.15c-0.14,2.23-0.06,4.47-0.07,6.71C3125.03,1244.66,3125.03,1262.56,3125.03,1280.45z"/>
	<path class="st9" d="M2140.51,1566.24c3.38-1.58,3.63-5.02,4.68-7.92c6.43-17.71,12.81-35.44,19.2-53.17
		c0.76-2.1,1.42-4.24,2.23-6.33c1.92-4.98,3.96-6.53,9.33-6.43c5.82,0.1,8.22,1.26,10.15,6.7c6.6,18.67,13.54,37.21,20.35,55.81
		c0.88,2.4,1.64,4.84,2.57,7.22c0.57,1.43,1.11,3.4,2.74,3.54c2.54,0.23,2.68-2.38,3.26-4.01c7.24-20.14,14.37-40.31,21.55-60.47
		c3.03-8.51,4.32-9.3,13.15-8.35c3.27,0.35,4.42,1.94,3.4,5.24c-1.22,3.96-2.68,7.86-4.08,11.76
		c-10.48,29.15-20.94,58.32-31.49,87.44c-1.07,2.96-1.73,6.17-3.96,8.65c-1.34,1.5-3.96,1.36-4.8-0.5
		c-1.05-2.32-1.92-4.74-2.79-7.14c-8.17-22.52-16.3-45.05-24.51-67.55c-1.09-2.99-2.47-5.88-3.82-8.76
		c-0.58-1.24-2.33-1.12-2.99,0.2c-0.99,1.99-1.98,4-2.74,6.09c-8.91,24.62-17.76,49.27-26.66,73.9c-0.42,1.18-0.93,2.37-1.63,3.39
		c-1.24,1.83-4.72,1.77-5.81-0.07c-0.65-1.09-1.14-2.29-1.57-3.49c-11.94-33.38-23.85-66.76-35.78-100.14c-2.86-8-1.8-9.32,6.87-9.2
		c4.04,0.06,6.33,1.48,7.74,5.51c7.19,20.49,14.66,40.89,22.02,61.32C2137.97,1561.85,2138.34,1564.43,2140.51,1566.24z"/>
	<path class="st7" d="M707.89,1267.98c0-21.73,0-43.47,0-65.2c0-2.24-0.09-4.48,0.05-6.71c0.23-3.88,1.51-5.39,5.15-5.47
		c6.39-0.14,12.78-0.1,19.17,0.07c2.73,0.07,4,1.51,4.17,4.25c0.16,2.55,0.12,5.11,0.12,7.67c0.01,36.12-0.01,72.23,0.01,108.35
		c0.01,9.62,0.05,9.67,9.39,9.69c13.42,0.04,26.84,0,40.26,0.02c2.56,0,5.12,0.01,7.66,0.18c1.71,0.11,3.26,0.98,3.3,2.83
		c0.15,6.06,0.16,12.12,0.08,18.18c-0.02,1.34-1.11,2.39-2.41,2.63c-2.18,0.39-4.41,0.7-6.63,0.7c-23.65,0.05-47.29,0.03-70.94,0.03
		c-1.28,0-2.56,0.03-3.83-0.08c-3.89-0.33-5.23-1.55-5.47-5.22c-0.17-2.55-0.09-5.11-0.09-7.67
		C707.89,1310.81,707.89,1289.4,707.89,1267.98z"/>
	<path class="st8" d="M2889.35,1267.39c0-22.7-0.04-45.4,0.02-68.1c0.02-8.43,0.27-8.64,8.51-8.76c5.11-0.07,10.22,0.04,15.33,0.15
		c2.59,0.06,4.27,1.56,4.61,4.03c0.42,3.15,0.61,6.35,0.61,9.53c-0.04,35.16-0.19,70.33-0.18,105.49
		c0.01,11.19-0.77,10.93,11.09,10.9c13.1-0.03,26.21-0.01,39.31,0.01c2.23,0,4.47,0.04,6.7,0.21c1.84,0.14,2.99,1.42,3.03,3.12
		c0.15,5.75,0.13,11.5,0.06,17.24c-0.03,2.3-1.67,3.4-3.7,3.66c-2.21,0.28-4.46,0.29-6.69,0.29c-22.69,0.02-45.39,0.04-68.08,0
		c-10.57-0.02-10.6-0.08-10.61-10.65C2889.33,1312.14,2889.35,1289.76,2889.35,1267.39z"/>
	<path class="st10" d="M961.93,1536.79c2.26-0.83,3.55-2.65,4.86-4.49c7.25-10.13,14.53-20.25,21.82-30.35
		c1.31-1.81,2.58-3.67,4.08-5.31c3-3.3,6.91-4.49,11.26-4.25c4.53,0.25,6.2,1.96,6.46,6.56c0.11,1.91,0.05,3.83,0.05,5.75
		c0,30.05,0,60.1,0,90.15c0,2.24,0.04,4.48-0.11,6.71c-0.32,4.99-1.38,6.01-6.37,6.42c-8.03,0.67-9.37-0.43-9.4-8.96
		c-0.1-22.06-0.02-44.11-0.04-66.17c0-2.21,0.51-4.44-0.46-6.62c-0.49-1.1-2.32-1.73-3.12-0.81c-1.05,1.19-2.04,2.43-2.97,3.72
		c-6.52,9.09-12.99,18.21-19.53,27.28c-1.3,1.8-2.69,3.58-4.27,5.14c-1.26,1.24-2.99,1.35-4.28,0.02c-1.77-1.83-3.43-3.78-4.93-5.84
		c-6.23-8.51-12.36-17.08-18.56-25.61c-1.12-1.54-2.31-3.04-3.59-4.45c-0.33-0.36-1.17-0.53-1.67-0.4c-0.5,0.13-1.2,0.72-1.25,1.17
		c-0.25,2.2-0.41,4.43-0.41,6.64c-0.03,19.5,0.01,39-0.03,58.5c-0.01,3.83-0.11,7.67-0.44,11.49c-0.27,3.2-1.67,4.4-4.89,4.83
		c-0.32,0.04-0.63,0.08-0.95,0.1c-8.11,0.4-9.99-1.25-9.97-8.81c0.11-32.6,0.01-65.21,0.07-97.81c0.02-7.87,1.13-8.63,8.9-8.82
		c4.71-0.12,7.72,1.93,10.34,5.61c7.97,11.19,16.12,22.25,24.24,33.34C958.22,1533.5,959.3,1535.94,961.93,1536.79z"/>
	<path class="st9" d="M1892.57,1550.56c0,15.98-0.04,31.95,0.01,47.93c0.03,9.09-0.79,9.9-10.99,9.16
		c-2.61-0.19-4.11-1.66-4.39-4.24c-0.27-2.53-0.28-5.1-0.28-7.65c-0.02-21.09-0.01-42.17-0.02-63.26c0-1.92,0-3.84-0.13-5.75
		c-0.06-0.93-0.43-1.91-1.59-1.96c-0.58-0.02-1.39,0.11-1.73,0.5c-1.25,1.45-2.38,3-3.49,4.56c-6.32,8.83-12.58,17.7-18.95,26.5
		c-5.88,8.11-6.93,8.11-12.9-0.01c-6.43-8.75-12.74-17.59-19.11-26.38c-1.12-1.55-2.21-3.14-3.55-4.49
		c-0.53-0.53-1.7-0.62-2.54-0.55c-0.41,0.03-1.04,0.88-1.07,1.4c-0.18,2.54-0.25,5.1-0.26,7.65c-0.03,20.13-0.03,40.26-0.05,60.39
		c0,2.88,0.02,5.76-0.16,8.62c-0.2,3.25-1.36,4.37-4.76,4.8c-1.58,0.2-3.19,0.28-4.77,0.19c-3.55-0.2-5.23-1.77-5.59-5.27
		c-0.2-1.9-0.16-3.83-0.16-5.74c-0.01-30.99-0.01-61.99-0.01-92.98c0-0.32-0.03-0.64,0-0.96c0.29-3.09-1.18-7.07,1.88-8.92
		c3.6-2.19,8.07-1.34,12.13-0.66c2.36,0.39,3.39,2.75,4.7,4.55c7.71,10.59,15.52,21.1,23.06,31.81c7.49,10.63,7.34,8.09,13.46-0.21
		c7.4-10.02,14.71-20.11,21.93-30.26c2.54-3.58,5.66-5.91,10.03-6.72c6.49-1.21,9.03,0.51,9.19,7.16c0.22,9.26,0.1,18.53,0.12,27.8
		C1892.59,1535.23,1892.58,1542.89,1892.57,1550.56z"/>
	<path class="st9" d="M1416.56,1550.32c0,14.7,0,29.41,0,44.11c0,2.24,0.07,4.48-0.04,6.71c-0.26,5.36-2.73,7.55-7.84,6.92
		c-3.25-0.4-6.24-1.52-8.48-4.02c-1.91-2.14-3.68-4.41-5.45-6.68c-16.29-20.93-32.54-41.89-48.86-62.8
		c-2.35-3.01-4.95-5.84-7.51-8.69c-0.77-0.85-2.87-0.02-2.95,1.15c-0.17,2.54-0.27,5.1-0.27,7.65c-0.02,18.86-0.01,37.72-0.01,56.58
		c0,3.2,0.03,6.4-0.09,9.59c-0.22,5.85-1.74,7.26-7.49,7.17c-5.24-0.08-6.88-1.57-7.24-6.75c-0.13-1.91-0.06-3.83-0.06-5.75
		c0-30.37,0-60.73,0-91.1c0-1.92-0.07-3.84,0.07-5.75c0.34-4.45,2.49-6.43,6.75-6.21c3.64,0.19,6.91,1.39,9.37,4.19
		c1.69,1.92,3.21,3.98,4.78,5.99c17.26,22.2,34.52,44.4,51.79,66.59c1.37,1.77,2.78,3.5,4.22,5.21c0.85,1.01,1.97,1.84,3.25,1.06
		c0.68-0.42,1.26-1.46,1.35-2.28c0.19-1.9,0.05-3.83,0.05-5.74c0-19.82,0-39.63,0-59.45c0-2.24-0.01-4.48,0.05-6.71
		c0.2-8.31,0.66-8.74,8.68-8.32c4.82,0.25,5.59,0.93,5.86,5.55c0.13,2.23,0.07,4.47,0.07,6.71
		C1416.57,1520.27,1416.56,1535.29,1416.56,1550.32z"/>
	<path class="st7" d="M2507.35,1549.22c0-13.75-0.01-27.5,0.01-41.24c0-2.88-0.01-5.76,0.12-8.63c0.28-5.73,0.98-6.48,6.9-6.6
		c12.78-0.25,25.57-0.54,38.33,0.49c23.65,1.91,42.76,17.23,48.06,40.2c5.12,22.19,0.74,42.6-15.64,59.38
		c-8.57,8.78-19.04,13.56-31.46,14.47c-13.75,1-27.47,0.49-41.2,0.24c-3.45-0.06-4.52-1.21-4.86-4.59c-0.19-1.9-0.16-3.83-0.16-5.74
		c-0.01-15.99-0.01-31.97-0.01-47.96C2507.42,1549.22,2507.38,1549.22,2507.35,1549.22z M2523.1,1549.47c0.01,0,0.02,0,0.02,0
		c0,12.43-0.06,24.87,0.04,37.3c0.03,3.96,1.26,5.25,5.03,5.48c9.25,0.56,18.53,0.39,27.63-1.33c11.29-2.13,19.75-8.49,25.12-18.76
		c7.65-14.63,7.53-29.46,0.35-44.08c-5.6-11.4-15.2-17.78-27.79-19.36c-8.24-1.04-16.55-0.93-24.83-0.47
		c-4.65,0.26-5.5,1.11-5.54,5.84C2523.03,1525.88,2523.1,1537.68,2523.1,1549.47z"/>
	<path class="st9" d="M2097.29,1548.94c0.21,14.92-3.12,27.98-12.09,39.21c-9.87,12.35-22.79,19.16-38.5,20.66
		c-37.05,3.52-57.97-24.55-60.4-51.74c-1.04-11.64,0.5-22.95,5.21-33.69c9.52-21.71,30.72-34.04,54.67-32.47
		c19.79,1.3,42.03,15.39,48.97,40.79C2096.76,1537.59,2097.43,1543.61,2097.29,1548.94z M2002.39,1551.84
		c0.14,1.49,0.25,4.7,0.77,7.84c2.81,16.86,15.3,29.75,31.86,33c14.99,2.95,30.67-4.15,39.46-17.86c10.8-16.85,8.78-40.31-4.4-55.29
		c-12.84-14.59-38.84-16.53-53.66-2.8C2006.67,1525.78,2002.42,1537.05,2002.39,1551.84z"/>
	<path class="st7" d="M2850.58,1550.22c0.29-15.7,4.24-29,13.74-40.12c14.69-17.2,33.74-22.9,55.23-17.58
		c22.4,5.55,36.06,20.74,41.1,43.32c2.62,11.75,2.04,23.48-1.72,34.96c-6.74,20.6-25.97,40.87-59.48,37.93
		c-24.49-2.15-44.33-21.6-47.94-47.31C2850.94,1557.32,2850.82,1553.16,2850.58,1550.22z M2945.61,1550.17
		c0.54-14.07-4.78-25.1-14.84-34.18c-13.44-12.14-42.65-13.2-56.31,7.99c-10.38,16.1-10.41,36.2-0.1,52.34
		c12.59,19.71,42,22.13,57.67,6.88C2941.49,1574,2946.13,1562.97,2945.61,1550.17z"/>
	<path class="st7" d="M840.43,1608.92c-20.6,0.74-44.39-11.43-52.43-39.47c-4.37-15.23-3.79-30.33,2.27-45
		c8.61-20.85,28.08-33.85,50.06-33.82c23.42,0.03,42.97,12.97,51.59,34.49c6.31,15.73,6.62,31.75,0.82,47.69
		C884.53,1595.33,864.66,1608.91,840.43,1608.92z M880.09,1550.12c0.56-6.89-0.61-13.42-3.59-19.62
		c-14.23-29.67-51.02-29.16-66.46-8.01c-11.82,16.19-11.39,40.56,0.77,56.54c11.91,15.65,39.41,19.89,55.55,4.45
		C875.87,1574.4,881.06,1563.48,880.09,1550.12z"/>
	<path class="st7" d="M528.58,1549.62c0-15.32-0.01-30.65,0.01-45.97c0-2.23,0.05-4.47,0.18-6.7c0.12-2.13,1.15-3.57,3.4-3.9
		c0.32-0.05,0.62-0.17,0.94-0.18c15.64-0.52,31.4-1.52,46.84,1.07c25.42,4.28,39.45,22.27,42.86,44.17
		c1.63,10.46,1.6,21.1-1.86,31.28c-6.11,18-17.58,30.88-36.34,36.28c-2.73,0.79-5.62,1.19-8.46,1.42
		c-13.7,1.14-27.43,0.76-41.15,0.32c-5.47-0.18-6.19-0.87-6.3-6.08c-0.17-7.66-0.1-15.32-0.11-22.99
		C528.57,1568.78,528.58,1559.2,528.58,1549.62z M544.1,1549.25c0,0-0.01,0-0.01,0c0,12.15-0.08,24.29,0.04,36.44
		c0.05,5.26,1.66,7.03,6.89,6.92c8.29-0.18,16.65-0.35,24.85-1.47c11-1.51,19.76-7.18,25.39-16.96c6.85-11.92,8.52-24.63,4.84-37.91
		c-4.39-15.82-16.58-26.21-32.96-27.67c-7.3-0.65-14.68-0.4-22.02-0.49c-1.26-0.02-2.55,0.21-3.79,0.49
		c-1.7,0.38-2.8,1.51-2.96,3.27c-0.18,1.9-0.25,3.82-0.25,5.74C544.09,1528.15,544.1,1538.7,544.1,1549.25z"/>
	<path class="st9" d="M3220.84,1550.26c0-14.06,0-28.12,0-42.18c0-2.24-0.15-4.49,0.06-6.71c0.26-2.75-0.63-6.24,2.35-7.79
		c3.51-1.82,7.47-1.48,11.19-0.11c1.24,0.46,2.05,1.63,2.19,2.93c0.23,2.22,0.29,4.46,0.31,6.69c0.06,9.59,0.06,19.17,0.13,28.76
		c0.02,2.23,0.12,4.47,0.4,6.68c0.22,1.76,1.53,2.77,3.19,3.11c1.24,0.25,2.54,0.28,3.81,0.29c13.74,0.02,27.47,0.08,41.21-0.02
		c6.46-0.05,7.3-0.88,7.4-7.08c0.14-9.26,0.09-18.53,0.14-27.8c0.01-2.88-0.05-5.76,0.16-8.62c0.33-4.51,2.38-6.1,7.82-6.37
		c4.33-0.21,6.78,1.51,7.49,5.61c0.43,2.5,0.61,5.08,0.61,7.62c0.04,30.36,0.02,60.71,0.02,91.07c0,0.64,0.01,1.28-0.01,1.92
		c-0.28,8.88-3.27,11.28-11.87,9.52c-2.08-0.42-3.52-1.69-3.84-3.75c-0.33-2.2-0.36-4.45-0.37-6.68
		c-0.04-8.95-0.01-17.89-0.03-26.84c-0.01-2.56,0.01-5.12-0.17-7.66c-0.23-3.4-1.18-4.2-4.86-4.49c-0.64-0.05-1.28-0.04-1.92-0.04
		c-14.05,0-28.11-0.08-42.16,0.04c-6.33,0.05-6.95,0.77-7.02,7.35c-0.12,10.86-0.03,21.73-0.15,32.59
		c-0.09,8.83-2.34,10.74-10.91,9.57c-3.23-0.44-4.49-1.57-4.77-4.89c-0.29-3.5-0.39-7.02-0.4-10.53
		C3220.81,1578.38,3220.84,1564.32,3220.84,1550.26z"/>
	<path class="st9" d="M2753.13,1575.66c0,5.75-0.08,11.5,0.02,17.25c0.08,4.71-1.91,7.85-6.31,9.65c-16.46,6.7-33.37,8.7-50.62,4.04
		c-15.52-4.2-26.15-14.64-32.49-29.01c-9.12-20.67-7.91-41.29,3.76-60.6c12.03-19.9,33.3-30.09,60.51-24.6
		c6.28,1.27,12.14,3.87,18.02,6.35c3.47,1.46,4.97,4.11,4.62,7.56c-1.03,10.1,0.24,12.48-10.31,6.76
		c-7.35-3.98-15.38-6.15-23.83-6.45c-17.13-0.61-32,8.71-38.45,24.72c-5.38,13.36-5.29,26.96,0.86,40.01
		c6.7,14.23,18.19,21.76,34.12,22.22c6.79,0.19,13.35-0.74,19.73-3.12c2.7-1,4.18-2.84,4.42-5.65c0.16-1.91,0.15-3.82,0.2-5.74
		c0.38-13.2,0.02-13.47-12.05-13.15c-0.95,0.03-1.92-0.05-2.87-0.17c-3.67-0.47-4.92-1.84-5.13-5.61c-0.04-0.64-0.03-1.28-0.02-1.92
		c0.08-6.66,0.86-7.53,7.83-7.63c7.34-0.1,14.69-0.09,22.04,0.06c4.33,0.09,5.66,1.39,5.78,5.84c0.18,6.38,0.05,12.78,0.05,19.17
		C2753.04,1575.66,2753.09,1575.66,2753.13,1575.66z"/>
	<path class="st8" d="M2855.91,1267.71c0,22.06,0.01,44.11-0.01,66.17c0,2.55-0.04,5.11-0.2,7.66c-0.11,1.82-1.31,3.1-3.03,3.12
		c-7.34,0.11-14.68,0.1-22.02-0.06c-2.2-0.05-3.34-1.73-3.5-3.85c-0.17-2.23-0.22-4.47-0.22-6.7c-0.01-44.11,0.04-88.23-0.04-132.34
		c-0.02-11.74,0.83-11.17,11.17-11.08c4.47,0.04,8.95-0.03,13.42,0.16c3.06,0.13,4.06,1.15,4.26,4.04c0.18,2.55,0.16,5.11,0.16,7.67
		C2855.92,1224.24,2855.91,1245.98,2855.91,1267.71z"/>
	<path class="st10" d="M2773.41,1550.03c0-14.7-0.01-29.4,0-44.11c0-2.24-0.07-4.48,0.1-6.71c0.38-5.16,1.35-6.18,6.33-6.32
		c8.94-0.24,17.89-0.48,26.82,0.34c14.31,1.31,23.84,9.33,26.64,23.32c2.45,12.24,0.7,23.58-9.31,32.4
		c-0.96,0.84-1.95,1.66-2.78,2.62c-1.15,1.33-1.27,2.74-0.18,4.3c4.77,6.8,9.62,13.54,14.16,20.48
		c5.77,8.83,10.98,17.99,15.49,27.54c0.95,2,0.45,3.13-1.48,3.5c-1.57,0.3-3.15,0.53-4.74,0.69c-5.25,0.54-9.44-1.28-12.2-5.85
		c-3.3-5.47-6.46-11.01-9.7-16.52c-2.59-4.4-5.1-8.86-7.84-13.16c-2.41-3.78-5.39-7.13-8.76-10.11c-2.72-2.4-5.83-3.81-9.48-4.12
		c-4.84-0.42-6.55,0.83-6.95,5.51c-0.19,2.22-0.15,4.47-0.15,6.71c-0.01,8.95,0.03,17.9-0.01,26.85c-0.01,2.22-0.11,4.46-0.42,6.66
		c-0.3,2.12-1.79,3.28-3.87,3.67c-0.63,0.12-1.26,0.27-1.89,0.26c-8.54-0.09-9.72-0.88-9.76-9.06
		C2773.36,1582.63,2773.41,1566.33,2773.41,1550.03z M2789.36,1525.6c-0.12,0-0.23,0-0.35,0c0,3.49-0.16,7,0.04,10.48
		c0.31,5.58,1.65,6.89,6.94,6.7c3.16-0.11,6.36-0.45,9.44-1.15c8.35-1.89,13.17-8.64,12.85-17.6c-0.3-8.43-5.29-14.52-13.58-16
		c-3.4-0.61-6.96-0.61-10.43-0.52c-3.16,0.08-4.61,1.43-4.82,4.76C2789.14,1516.7,2789.36,1521.16,2789.36,1525.6z"/>
	<path class="st9" d="M2387.18,1552.99c5.67,8.61,11.15,16.45,16.11,24.59c4.99,8.18,9.58,16.6,14.12,25.04
		c1.94,3.61,0.82,5.09-3.47,5.29c-1.91,0.09-3.84-0.01-5.75-0.01c-3.96,0-6.4-2.09-8.28-5.47c-4.34-7.82-8.87-15.55-13.4-23.27
		c-3.41-5.8-7.18-11.35-12.16-15.97c-3.42-3.17-7.31-5.08-12.08-4.95c-2.96,0.08-4.81,1.5-5.21,4.5c-0.29,2.21-0.26,4.46-0.27,6.7
		c-0.04,9.6,0,19.19-0.06,28.79c-0.01,2.23-0.15,4.48-0.5,6.67c-0.12,0.77-0.93,1.81-1.66,2.05c-3.39,1.13-6.89,1.31-10.37,0.31
		c-1.33-0.38-2.32-1.34-2.51-2.63c-0.33-2.2-0.48-4.44-0.48-6.66c-0.03-31.67,0.04-63.34-0.05-95.01
		c-0.03-10.46,1.28-9.77,9.35-10.28c7.67-0.48,15.29-0.29,22.98,0.25c16.93,1.19,30.16,14.44,27.99,36.37
		c-0.79,7.94-3.96,14.76-10.25,19.93C2390,1550.23,2388.9,1551.37,2387.18,1552.99z M2356.42,1524.63c0.1,0,0.2,0,0.3,0
		c0,4.45-0.16,8.9,0.06,13.34c0.15,3.02,1.9,4.59,4.87,4.82c4.49,0.34,8.96-0.16,13.17-1.61c5.45-1.87,9.1-5.81,10.29-11.55
		c1.36-6.55,0.67-12.81-4.63-17.55c-5.64-5.04-12.38-6.18-19.6-4.3c-3.27,0.85-4.4,2.62-4.45,6.37
		C2356.38,1517.65,2356.42,1521.14,2356.42,1524.63z"/>
	<path class="st5" d="M3029.98,1268.14c0,22.68,0.03,45.36-0.02,68.04c-0.02,8.51-0.25,8.75-8.41,8.82
		c-5.43,0.04-10.86-0.04-16.28-0.29c-2.99-0.14-4.02-1.28-4.19-4.11c-0.14-2.23-0.1-4.47-0.1-6.7c0-44.08-0.01-88.16,0-132.24
		c0-10.37-1.12-11.45,10.91-11.15c4.47,0.11,8.94-0.08,13.41,0.08c3.46,0.12,4.39,1.17,4.61,4.74c0.14,2.23,0.07,4.47,0.07,6.7
		C3029.98,1224.06,3029.98,1246.1,3029.98,1268.14z"/>
	<path class="st5" d="M2346.82,1268.95c0,22.38,0.03,44.76-0.02,67.15c-0.02,8.61-0.16,8.77-8.39,8.89
		c-5.43,0.08-10.87-0.07-16.29-0.31c-2.86-0.12-3.89-1.32-4.08-4.26c-0.15-2.23-0.13-4.47-0.13-6.71
		c-0.01-44.12-0.01-88.25,0-132.37c0-10.64,0.04-10.65,10.4-10.69c4.48-0.02,8.95-0.09,13.42,0.06c4.06,0.14,4.83,1.02,5.02,5.34
		c0.12,2.55,0.06,5.11,0.06,7.67C2346.83,1225.46,2346.83,1247.2,2346.82,1268.95z"/>
	<path class="st1" d="M820.15,1267.02c0-21.43,0-42.85,0-64.28c0-2.24-0.07-4.48,0.06-6.71c0.23-4.14,1.2-5.26,5.1-5.32
		c6.07-0.09,12.14-0.14,18.2,0.17c3.27,0.17,4.29,1.54,4.7,4.93c0.26,2.22,0.41,4.46,0.4,6.69c-0.06,43.49-0.15,86.97-0.25,130.46
		c-0.03,13.28,0.68,11.5-12.05,11.99c-4.14,0.16-8.3-0.14-12.45-0.35c-2.22-0.11-3.47-1.45-3.56-3.7c-0.1-2.55-0.15-5.11-0.15-7.67
		C820.14,1311.15,820.15,1289.09,820.15,1267.02z"/>
	<path class="st10" d="M452.84,1550.31c0-14.07,0-28.14,0-42.21c0-1.92-0.02-3.84,0.04-5.76c0.31-9.22,0.5-9.52,9.97-9.61
		c13.11-0.13,26.21-0.09,39.32-0.08c2.23,0,4.48,0.08,6.69,0.38c2.71,0.37,3.58,2.16,3.64,6.8c0.07,5.23-0.85,7.41-3.64,7.84
		c-2.2,0.34-4.45,0.36-6.68,0.39c-7.67,0.09-15.34,0.11-23.02,0.19c-1.92,0.02-3.84,0.05-5.74,0.27c-2.78,0.33-3.93,1.49-4.21,4.29
		c-0.22,2.22-0.24,4.47-0.24,6.71c0,5.76-0.06,11.52,0.15,17.27c0.14,3.96,1.25,5.05,5.33,5.15c7.67,0.18,15.35,0.06,23.02,0.13
		c2.87,0.03,5.76,0.09,8.6,0.43c2.85,0.34,3.9,1.57,4.28,4.28c0.09,0.63,0.17,1.27,0.19,1.91c0.23,8.21-0.68,9-8.39,8.94
		c-7.03-0.06-14.07,0.08-21.1,0.17c-2.55,0.03-5.12,0.07-7.66,0.34c-2.78,0.3-4.18,1.6-4.21,4.26c-0.1,8.63-0.07,17.27,0.04,25.9
		c0.03,2.2,1.6,3.59,3.68,3.73c4.78,0.32,9.58,0.42,14.37,0.49c6.71,0.09,13.43-0.08,20.14,0.14c4.97,0.16,5.99,1.46,6.07,6.53
		c0.02,1.28,0.02,2.56-0.11,3.83c-0.28,2.7-1.52,3.99-4.21,4.35c-1.58,0.21-3.19,0.3-4.78,0.3c-14.07,0.02-28.14,0.02-42.2-0.02
		c-1.91-0.01-3.83-0.18-5.73-0.42c-1.82-0.22-2.87-1.5-3.02-3.2c-0.31-3.5-0.54-7.01-0.55-10.52
		C452.82,1579.09,452.85,1564.7,452.84,1550.31C452.85,1550.31,452.85,1550.31,452.84,1550.31z"/>
	<path class="st10" d="M2461.67,1607.6c-7.98,0-15.97,0.12-23.95-0.05c-4.37-0.09-5.57-1.43-5.97-5.78
		c-0.18-1.9-0.14-3.83-0.15-5.74c-0.01-30.67-0.02-61.33,0-92c0.01-11.05,0.44-11.53,11.12-11.55c13.73-0.02,27.46,0.05,41.2,0.23
		c6.07,0.08,6.84,0.96,6.97,6.48c0.19,7.87-0.59,8.83-8.52,9c-8.3,0.17-16.61,0.01-24.91,0.08c-2.22,0.02-4.45,0.21-6.64,0.52
		c-1.35,0.19-2.2,1.2-2.5,2.56c-0.14,0.62-0.28,1.25-0.28,1.88c-0.03,7.67-0.14,15.34,0.01,23c0.09,4.47,1.2,5.5,5.89,5.62
		c7.34,0.18,14.69,0.13,22.04,0.17c2.55,0.01,5.12-0.09,7.66,0.05c3.89,0.21,5.19,1.5,5.43,5.16c0.08,1.27,0.06,2.56,0.03,3.83
		c-0.15,5.77-0.81,6.52-6.76,6.65c-7.98,0.18-15.96,0.16-23.95,0.26c-2.23,0.03-4.48-0.02-6.69,0.26c-2.1,0.26-3.59,1.63-3.61,3.82
		c-0.08,8.62-0.79,17.24,0.16,25.85c0.24,2.22,1.56,3.32,3.68,3.75c3.77,0.77,7.57,1.31,11.42,0.87c7.99-0.9,15.95,0.21,23.92,0.27
		c4.03,0.03,5.01,1.26,5.26,5.19c0.02,0.32,0.02,0.64,0.03,0.96c0.21,7.33-0.78,8.55-7.89,8.69c-7.66,0.15-15.33,0.03-22.99,0.03
		C2461.67,1607.65,2461.67,1607.62,2461.67,1607.6z"/>
	<path class="st9" d="M254.61,1608c-6.98,0.02-8.04-0.61-10.76-7.11c-2.84-6.77-5.67-13.55-8.28-20.42
		c-1.84-4.86-5.1-6.88-10.27-6.77c-9.26,0.2-18.55,0.31-27.8-0.02c-5.81-0.2-8.75,2.34-10.49,7.63c-1.99,6.06-4.56,11.92-6.87,17.88
		c-0.46,1.19-0.78,2.43-1.27,3.61c-1.35,3.27-3.76,5.19-7.35,5.1c-2.53-0.07-5.06-0.44-7.56-0.84c-1.04-0.17-1.61-1.22-1.41-2.16
		c0.47-2.17,1.05-4.33,1.84-6.4c7.83-20.59,15.71-41.17,23.59-61.74c4.45-11.63,8.9-23.26,13.4-34.87c0.92-2.38,1.79-4.83,3.13-6.97
		c2.8-4.48,10.2-4.27,12.98,0.27c0.83,1.35,1.34,2.9,1.94,4.38c13.13,32.92,26.26,65.84,39.39,98.76c0.47,1.19,1.06,2.33,1.42,3.55
		c1.21,4.02-0.27,5.92-4.66,6.11C255.25,1608.01,254.93,1608,254.61,1608z M224.82,1556.11c-0.39-1.56-0.66-3.43-1.33-5.14
		c-3.37-8.61-6.83-17.19-10.28-25.77c-0.24-0.59-0.62-1.12-0.96-1.65c-0.68-1.06-2.75-1.11-3.17,0.01
		c-3.96,10.43-7.89,20.86-11.74,31.33c-0.53,1.45,0.43,2.49,1.84,2.68c8.22,1.08,16.45,1.85,24.61-0.47
		C224.05,1557.01,224.24,1556.66,224.82,1556.11z"/>
	<path class="st9" d="M1257.58,1573.78c-3.84,0-7.67-0.03-11.51,0.01c-8.17,0.08-9.27,0.8-12.09,8.12
		c-2.41,6.26-4.63,12.59-7.08,18.83c-2.73,6.96-8.33,9.24-15.32,6.41c-1.42-0.57-1.78-1.92-1.52-3.15c0.46-2.17,1.14-4.31,1.93-6.39
		c12.29-32.22,24.6-64.43,36.92-96.65c0.57-1.49,1.16-2.98,1.84-4.42c1.5-3.16,3.83-4.92,7.54-4.78c3.66,0.13,5.96,1.88,7.27,5.18
		c4.02,10.08,8.06,20.16,12.1,30.24c8.78,21.94,17.57,43.87,26.34,65.81c1.18,2.96,2.31,5.96,3.36,8.97
		c1.52,4.38,0.68,5.53-4.16,5.88c-0.96,0.07-1.92,0.06-2.87,0.11c-4.39,0.23-7.27-1.77-8.87-5.84c-2.34-5.94-4.73-11.86-7.14-17.78
		c-4.35-10.65-4.36-10.64-16.19-10.52c-3.52,0.03-7.03,0.01-10.55,0.01C1257.58,1573.8,1257.58,1573.79,1257.58,1573.78z
		 M1257.22,1522.29c-4.82,9.71-8.37,19.9-11.66,30.18c-1.23,3.85-0.13,5.63,3.71,5.75c6.37,0.2,12.76,0.14,19.13,0.07
		c3.15-0.03,4.14-1.26,3.23-4.15c-3.33-10.65-7.37-21.02-12.56-30.92C1258.84,1522.78,1258,1522.66,1257.22,1522.29z"/>
	<path class="st7" d="M433.29,1534.78c0,10.55,0,21.11,0,31.66c0,5.15-0.74,10.19-2.33,15.1c-4.92,15.26-15.99,23.55-31.14,26.6
		c-10.86,2.19-21.65,1.28-31.94-3.27c-11.29-4.98-18.38-13.5-21.33-25.46c-1.23-4.98-1.89-10.04-1.89-15.19
		c0-20.79-0.05-41.57-0.07-62.36c0-1.6,0-3.2,0.16-4.79c0.25-2.59,1.6-4.05,4.26-4.26c2.21-0.17,4.47-0.12,6.67,0.13
		c3.27,0.37,4.24,1.5,4.4,5.09c0.16,3.51,0.09,7.03,0.1,10.55c0.03,16.95,0.04,33.9,0.1,50.85c0.01,4.48,0.26,8.92,1.1,13.36
		c1.91,10.15,7.81,16.5,17.63,19.39c6.29,1.85,12.67,1.88,18.95,0.36c11.26-2.72,18.19-10.66,19.5-22.19
		c0.46-4.12,0.45-8.3,0.47-12.46c0.05-16.95,0.03-33.9,0.03-50.85c0-2.24-0.06-4.48,0.04-6.71c0.29-6.28,1.19-7.14,7.38-7.29
		c7.38-0.19,7.92,0.26,7.98,8.16c0.09,11.19,0.02,22.39,0.02,33.58C433.35,1534.78,433.32,1534.78,433.29,1534.78z"/>
	<path class="st9" d="M1721.22,1549.47c0-15.65-0.01-31.31,0.01-46.96c0-1.91,0.04-3.83,0.18-5.74c0.16-2.19,1.43-3.5,3.59-3.78
		c1.58-0.2,3.18-0.28,4.77-0.28c14.05-0.02,28.11-0.02,42.16,0c1.59,0,3.2,0.07,4.77,0.32c2.75,0.45,3.55,2.07,3.6,6.81
		c0.05,5.42-0.74,7.31-3.67,7.77c-2.19,0.35-4.44,0.38-6.67,0.4c-7.03,0.05-14.05-0.01-21.08,0.04c-2.55,0.02-5.11,0.1-7.65,0.35
		c-2.81,0.28-4.31,1.52-4.35,4.13c-0.12,7.98-0.18,15.96,0.13,23.93c0.15,3.84,1.41,4.87,5.43,5.27c3.8,0.38,7.64,0.36,11.46,0.42
		c6.7,0.11,13.41,0.01,20.1,0.27c3.25,0.13,4.52,1.67,4.71,4.86c0.12,1.91,0.11,3.84-0.03,5.74c-0.21,2.83-1.33,4.12-4.16,4.24
		c-5.42,0.23-10.85,0.19-16.28,0.27c-5.43,0.08-10.86,0.05-16.28,0.29c-3.21,0.14-5.12,1.76-5.15,4.56c-0.09,8.3,0.02,16.6,0.2,24.9
		c0.06,2.49,1.59,3.91,4.13,4.49c3.78,0.86,7.58,0.94,11.42,0.89c7.33-0.09,14.67-0.22,22-0.1c6.07,0.1,7.31,1.5,7.23,7.42
		c-0.02,1.27-0.13,2.55-0.39,3.79c-0.44,2.09-1.78,3.4-3.94,3.53c-2.87,0.18-5.74,0.25-8.62,0.25c-13.41-0.02-26.83,0-40.24-0.14
		c-6.35-0.07-7.3-0.96-7.34-7.17c-0.11-15.33-0.04-30.67-0.04-46C1721.22,1552.67,1721.22,1551.07,1721.22,1549.47z"/>
	<path class="st8" d="M1544.23,1549.79c0-15.33-0.01-30.67,0.01-46c0-2.55,0.07-5.11,0.27-7.65c0.14-1.8,1.36-2.78,3.1-3.07
		c0.94-0.16,1.9-0.31,2.85-0.31c15.33-0.02,30.65-0.03,45.98,0c1.27,0,2.55,0.2,3.8,0.43c1.35,0.25,2.39,1.15,2.76,2.39
		c0.92,3.11,1.01,6.32-0.04,9.42c-0.54,1.6-1.97,2.57-3.64,2.74c-2.22,0.23-4.46,0.24-6.69,0.25c-7.98,0.06-15.97,0.06-23.95,0.13
		c-8.42,0.08-8.95,0.61-9.02,9.44c-0.05,6.07-0.09,12.14,0.1,18.21c0.16,4.98,1.25,5.92,6.46,6.22c2.23,0.13,4.47,0.07,6.7,0.07
		c6.39,0.01,12.78-0.01,19.16,0.03c10.28,0.07,10.26,1.72,9.54,11.65c-0.16,2.18-1.71,3.41-3.85,3.55
		c-3.5,0.23-7.01,0.35-10.52,0.41c-7.34,0.12-14.69,0.06-22.03,0.31c-4.09,0.14-5.37,1.38-5.43,5.08
		c-0.12,7.98-0.12,15.97,0.01,23.96c0.06,3.66,1.5,5.04,5.39,5.2c5.74,0.24,11.49,0.24,17.24,0.29c4.47,0.04,8.94-0.05,13.41,0.02
		c8.19,0.14,9.19,1.35,8.36,9.74c-0.37,3.78-1.42,5.11-5.47,5.14c-16.28,0.12-32.57,0.1-48.86-0.07c-4.63-0.05-5.55-1.1-5.58-5.84
		c-0.1-17.25-0.04-34.5-0.04-51.75C1544.25,1549.79,1544.24,1549.79,1544.23,1549.79z"/>
	<path class="st7" d="M2265.84,1550.2c0-15.34,0-30.68,0-46.03c0-2.24-0.05-4.48,0.09-6.71c0.21-3.31,1.28-4.27,4.81-4.64
		c0.32-0.03,0.64-0.07,0.96-0.07c15.66-0.01,31.32-0.02,46.97,0.01c0.94,0,1.9,0.2,2.83,0.4c1.36,0.3,2.35,1.23,2.56,2.53
		c0.36,2.19,0.66,4.43,0.58,6.63c-0.13,3.71-1.55,5.35-5.24,5.48c-8.62,0.3-17.25,0.3-25.87,0.43c-2.87,0.04-5.76-0.02-8.61,0.25
		c-2.13,0.2-3.48,1.62-3.5,3.85c-0.07,8.31-0.15,16.62-0.03,24.93c0.05,3.32,1.36,4.59,4.79,4.67c7.66,0.18,15.34,0.04,23,0.17
		c3.5,0.06,7.01,0.33,10.49,0.74c2.1,0.25,3.32,1.75,3.66,3.86c0.1,0.63,0.12,1.27,0.14,1.91c0.23,7.57-1.11,9.11-8.62,8.99
		c-7.99-0.13-15.98,0.07-23.96,0.16c-1.91,0.02-3.85,0.02-5.72,0.32c-2.02,0.32-3.69,1.47-3.71,3.71
		c-0.07,8.94-0.07,17.88,0.05,26.82c0.03,2.22,1.84,3.35,3.84,3.6c2.52,0.31,5.09,0.32,7.64,0.34c8.95,0.04,17.9-0.06,26.84,0.07
		c5,0.08,5.99,1.27,6.23,6.35c0.03,0.64,0.06,1.28,0.05,1.92c-0.12,4.93-1.3,6.28-6.19,6.5c-4.15,0.18-8.31,0.1-12.46,0.1
		c-11.82,0-23.65,0.08-35.47-0.06c-5.03-0.06-6.08-1.16-6.11-6.38c-0.09-16.94-0.04-33.88-0.04-50.82
		C2265.84,1550.2,2265.84,1550.2,2265.84,1550.2z"/>
	<path class="st9" d="M1490.1,1608.88c-33.31,1.17-51.4-23.43-55.4-46.86c-1.99-11.65-1.23-23.01,2.81-33.97
		c8.53-23.16,31-42.43,65.17-35.72c5.9,1.16,11.57,3.54,17.3,5.5c4.05,1.39,6.28,4.18,6.02,8.69c-0.13,2.23-0.04,4.47-0.06,6.71
		c-0.02,3.14-1.24,4.47-5.07,2.99c-2.07-0.8-3.97-2.06-6.02-2.93c-8.6-3.66-17.52-6.23-26.93-5.71
		c-19.25,1.07-34.63,15.47-37.53,34.96c-1.09,7.32-0.76,14.59,1.32,21.81c5.91,20.56,25.44,31.72,46.08,28.28
		c6.66-1.11,12.86-3.71,18.97-6.47c1.74-0.78,3.38-1.79,5.13-2.57c3.28-1.46,5.04-0.54,5.04,2.93c0,12.67,2.06,13.15-12.57,18.63
		C1506.49,1608.09,1498.24,1609,1490.1,1608.88z"/>
	<path class="st9" d="M736,1608.95c-0.24,0-0.88-0.01-1.52,0c-30.7,0.72-48.39-20.88-53.6-44.19c-2.63-11.78-2.22-23.57,1.69-35.01
		c6.44-18.83,19.16-31.36,38.37-37.02c7.82-2.31,15.84-2,23.78-0.93c7.31,0.98,14.28,3.39,21.12,6.09c3.64,1.43,5.62,4.04,5.36,8.14
		c-0.1,1.59,0.03,3.2-0.02,4.79c-0.23,6.59-0.95,7-7.38,4.08c-6.71-3.04-13.57-5.43-20.89-6.74c-24.13-4.33-44.89,13.32-47.06,36.51
		c-0.72,7.71-0.3,15.33,2.49,22.68c6.89,18.2,25.01,28.61,44.51,25.39c7.29-1.2,14.26-3.48,20.77-7.07
		c1.95-1.07,3.94-2.11,6.01-2.88c1.42-0.53,2.71,0.51,2.77,1.8c0.19,3.81,0.38,7.68-0.07,11.45c-0.47,3.89-3.54,5.8-6.98,7.15
		C758.01,1606.08,747.24,1609.32,736,1608.95z"/>
	<path class="st9" d="M1030.23,1549.77c0-15-0.01-30.01,0.01-45.01c0-2.55,0.04-5.11,0.31-7.64c0.3-2.74,1.54-3.93,4.41-4.03
		c12.44-0.44,24.89-0.82,37.31,0.35c7.82,0.74,13.93,4.68,18,11.27c7.88,12.76,8.09,26,1.03,39.11
		c-4.23,7.84-11.53,11.77-20.13,13.09c-5.03,0.77-10.16,0.93-15.25,1.33c-1.59,0.12-3.2,0.04-4.78,0.2
		c-3.22,0.32-4.68,1.55-4.83,4.77c-0.29,6.05-0.32,12.12-0.37,18.18c-0.05,7.02,0.13,14.04-0.04,21.06
		c-0.1,3.81-1.63,5.18-5.27,5.41c-1.58,0.1-3.19,0.06-4.78-0.1c-3.79-0.37-5.15-1.65-5.45-5.33c-0.21-2.54-0.17-5.1-0.18-7.66
		C1030.23,1579.78,1030.24,1564.77,1030.23,1549.77z M1045.81,1526.12c0.94,3.11-0.5,7.27,0.06,11.41c0.41,3,1.87,4.6,4.85,5.07
		c5.74,0.89,11.47,0.77,17.12-0.7c8.16-2.12,12.44-7.96,12.52-17c0.07-8.11-4.32-13.87-12.33-16.1c-5.63-1.56-11.39-1.53-17.13-1.02
		c-3.44,0.31-4.86,1.96-5.05,5.81C1045.67,1517.41,1045.81,1521.26,1045.81,1526.12z"/>
	<path class="st7" d="M1913.28,1550.16c0-15.99-0.01-31.97,0.01-47.96c0-1.91,0.01-3.84,0.22-5.74c0.19-1.7,1.17-2.91,2.92-3.34
		c0.31-0.08,0.62-0.19,0.94-0.2c12.46-0.45,24.94-1.13,37.34,0.51c8.81,1.17,15.34,6.15,19.58,13.88
		c5.18,9.45,5.95,19.45,2.68,29.67c-3.66,11.47-11.74,18.01-23.47,19.95c-4.71,0.78-9.54,0.91-14.31,1.28
		c-2.23,0.18-4.47,0.17-6.69,0.37c-1.83,0.17-2.86,1.45-3.12,3.11c-0.3,1.88-0.33,3.81-0.35,5.72c-0.08,9.91-0.12,19.82-0.19,29.73
		c-0.02,2.24-0.02,4.48-0.17,6.71c-0.15,2.24-1.57,3.38-3.7,3.67c-1.26,0.17-2.54,0.29-3.81,0.3c-6.45,0.07-7.84-1.1-7.89-7.79
		c-0.13-16.63-0.04-33.25-0.04-49.88C1913.25,1550.16,1913.26,1550.16,1913.28,1550.16z M1929.03,1525.05
		c0,4.45-0.09,8.91,0.04,13.36c0.06,2.04,1.11,3.92,3.24,4.17c6.99,0.8,14.05,1.14,20.76-1.42c6.76-2.59,10.38-9.63,9.69-17.99
		c-0.65-7.95-4.99-12.93-12.71-14.59c-5.35-1.15-10.77-1-16.17-0.73c-3.16,0.16-4.67,1.66-4.81,4.8
		C1928.9,1516.76,1929.03,1520.91,1929.03,1525.05z"/>
	<path class="st9" d="M90.46,1492.66c1.47,0.08,2.74,0.11,4.01,0.24c2.04,0.2,3.65,1.1,4.47,3.07c0.74,1.77,1.44,3.55,2.13,5.34
		c7.5,19.35,14.98,38.71,22.49,58.06c0.92,2.38,1.93,4.72,2.98,7.04c0.56,1.23,2.35,1.34,2.97,0.16c1.32-2.54,2.69-5.07,3.72-7.73
		c7.14-18.46,14.19-36.96,21.27-55.44c0.57-1.49,1.29-2.94,1.7-4.47c1.29-4.85,4.51-6.39,9.29-6.26c7.37,0.2,8.31,1.39,5.55,8.69
		c-12.21,32.25-24.47,64.48-36.75,96.7c-1.02,2.67-2.22,5.29-3.55,7.82c-0.93,1.77-3.78,1.7-4.78-0.09
		c-1.08-1.95-2.02-3.99-2.82-6.07c-12.74-33.07-25.44-66.16-38.15-99.24c-0.34-0.89-0.78-1.76-1.05-2.67
		c-0.83-2.84,0.12-4.42,2.88-4.79C88.09,1492.83,89.37,1492.76,90.46,1492.66z"/>
	<path class="st9" d="M1107.8,1549.97c0-14.71-0.01-29.43,0.01-44.14c0.01-2.88,0.06-5.76,0.3-8.62c0.25-2.99,1.27-3.92,4.12-4.29
		c0.63-0.08,1.27-0.16,1.91-0.18c9.54-0.27,9.93,0.73,9.91,9.45c-0.04,24.31,0.02,48.62,0.06,72.93
		c0.03,18.66-1.5,16.62,16.23,16.73c6.4,0.04,12.79,0.04,19.19,0.12c2.23,0.03,4.48,0.08,6.68,0.4c2.05,0.3,3.56,1.52,3.67,3.77
		c0.12,2.55,0.12,5.11,0,7.66c-0.1,2.21-1.5,3.51-3.62,3.8c-2.21,0.29-4.45,0.44-6.68,0.44c-13.75,0.04-27.5,0.02-41.26,0.02
		c-1.28,0-2.56,0.02-3.84-0.08c-5.49-0.43-6.5-1.26-6.55-7.15c-0.14-16.95-0.05-33.91-0.05-50.86
		C1107.86,1549.97,1107.83,1549.97,1107.8,1549.97z"/>
	<path class="st10" d="M273.02,1549.38c0-16-0.01-31.99,0.01-47.99c0-1.91,0.11-3.83,0.32-5.73c0.16-1.41,1.19-2.23,2.52-2.51
		c1.24-0.26,2.53-0.41,3.8-0.43c7.81-0.11,8.83,0.71,8.87,8.7c0.12,25.28,0.08,50.55,0.1,75.83c0,2.88-0.08,5.76,0.05,8.64
		c0.22,4.7,1.15,5.75,5.58,6.05c2.87,0.19,5.75,0.04,8.63,0.06c8.64,0.06,17.28-0.04,25.9,0.28c4.67,0.17,5.98,1.97,6.08,6.79
		c0.03,1.28,0.03,2.57-0.11,3.83c-0.34,3.03-1.71,4.36-4.98,4.8c-1.58,0.21-3.19,0.32-4.78,0.31c-14.39-0.02-28.78-0.06-43.17-0.15
		c-1.91-0.01-3.83-0.19-5.71-0.5c-1.76-0.29-2.81-1.53-2.92-3.29c-0.21-3.19-0.35-6.39-0.36-9.59c-0.04-15.04-0.02-30.08-0.02-45.12
		C272.9,1549.38,272.96,1549.38,273.02,1549.38z"/>
	<path class="st10" d="M1197.33,1551.07c0,15.97,0.06,31.94-0.03,47.91c-0.05,8.19-0.59,8.58-8.76,8.37c-5.23-0.13-6.21-1-6.52-6.02
		c-0.14-2.23-0.06-4.47-0.06-6.71c0-30.03,0-60.05,0-90.08c0-1.6-0.05-3.2,0.02-4.79c0.22-5.76,1.24-6.89,6.6-7.05
		c8.66-0.27,8.8,1.21,8.77,8.53C1197.29,1517.85,1197.33,1534.46,1197.33,1551.07z"/>
	<path class="st3" d="M1666.89,1608.83c-5.31-0.05-9.52-4.51-9.42-9.98c0.1-5.49,4.46-10.08,9.51-10.02
		c4.98,0.06,9.51,4.86,9.56,10.12C1676.6,1604.2,1672.02,1608.88,1666.89,1608.83z"/>
</g>
</svg>
